ISO-10303-21;
HEADER;
/* Generated by software containing ST-Developer
 * from STEP Tools, Inc. (www.steptools.com) 
 */
/* OPTION: using custom renumber hook */

FILE_DESCRIPTION(
/* description */ ('STEP AP242 Edition 2',
'CAx-IF Rec.Pracs.---Representation and Presentation of Product Manufa
cturing Information (PMI)---4.0---2014-10-13',
'CAx-IF Rec.Pracs.---3D Tessellated Geometry---0.4---2014-09-14','2;1',
'CAx-IF Rec.Pracs.---User Defined Attributes---1.5---2016-08-15'),
/* implementation_level */ '2;1');

FILE_NAME(
/* name */ 'Bot Arms',
/* time_stamp */ '2026-07-08T06:46:52Z',
/* author */ (''),
/* organization */ (''),
/* preprocessor_version */ 'ST-DEVELOPER v20',
/* originating_system */ 'ONSHAPE BY PTC INC, 1.217',
/* authorisation */ '  ');

FILE_SCHEMA (('AP242_MANAGED_MODEL_BASED_3D_ENGINEERING_MIM_LF { 1 0 10303 442 3 1 4 }'));
ENDSEC;

DATA;
#10=SHAPE_REPRESENTATION_RELATIONSHIP('','',#691,#12);
#11=SHAPE_REPRESENTATION_RELATIONSHIP('','',#692,#13);
#12=ADVANCED_BREP_SHAPE_REPRESENTATION('',(#687),#1139);
#13=ADVANCED_BREP_SHAPE_REPRESENTATION('',(#688),#1140);
#14=CYLINDRICAL_SURFACE('',#708,0.00175);
#15=CYLINDRICAL_SURFACE('',#711,0.00175);
#16=CYLINDRICAL_SURFACE('',#714,0.00175);
#17=CYLINDRICAL_SURFACE('',#717,0.00175);
#18=CYLINDRICAL_SURFACE('',#723,0.00889);
#19=CYLINDRICAL_SURFACE('',#741,0.00175);
#20=CYLINDRICAL_SURFACE('',#744,0.00175);
#21=CYLINDRICAL_SURFACE('',#747,0.00175);
#22=CYLINDRICAL_SURFACE('',#750,0.00175);
#23=CYLINDRICAL_SURFACE('',#756,0.00889);
#24=LINE('',#959,#84);
#25=LINE('',#962,#85);
#26=LINE('',#964,#86);
#27=LINE('',#966,#87);
#28=LINE('',#968,#88);
#29=LINE('',#970,#89);
#30=LINE('',#972,#90);
#31=LINE('',#974,#91);
#32=LINE('',#976,#92);
#33=LINE('',#978,#93);
#34=LINE('',#982,#94);
#35=LINE('',#984,#95);
#36=LINE('',#986,#96);
#37=LINE('',#988,#97);
#38=LINE('',#991,#98);
#39=LINE('',#992,#99);
#40=LINE('',#994,#100);
#41=LINE('',#996,#101);
#42=LINE('',#998,#102);
#43=LINE('',#1000,#103);
#44=LINE('',#1003,#104);
#45=LINE('',#1004,#105);
#46=LINE('',#1006,#106);
#47=LINE('',#1008,#107);
#48=LINE('',#1010,#108);
#49=LINE('',#1012,#109);
#50=LINE('',#1016,#110);
#51=LINE('',#1018,#111);
#52=LINE('',#1019,#112);
#53=LINE('',#1020,#113);
#54=LINE('',#1052,#114);
#55=LINE('',#1055,#115);
#56=LINE('',#1057,#116);
#57=LINE('',#1059,#117);
#58=LINE('',#1061,#118);
#59=LINE('',#1063,#119);
#60=LINE('',#1065,#120);
#61=LINE('',#1067,#121);
#62=LINE('',#1069,#122);
#63=LINE('',#1071,#123);
#64=LINE('',#1075,#124);
#65=LINE('',#1077,#125);
#66=LINE('',#1079,#126);
#67=LINE('',#1081,#127);
#68=LINE('',#1084,#128);
#69=LINE('',#1085,#129);
#70=LINE('',#1087,#130);
#71=LINE('',#1089,#131);
#72=LINE('',#1091,#132);
#73=LINE('',#1093,#133);
#74=LINE('',#1096,#134);
#75=LINE('',#1097,#135);
#76=LINE('',#1099,#136);
#77=LINE('',#1101,#137);
#78=LINE('',#1103,#138);
#79=LINE('',#1105,#139);
#80=LINE('',#1109,#140);
#81=LINE('',#1111,#141);
#82=LINE('',#1112,#142);
#83=LINE('',#1113,#143);
#84=VECTOR('',#769,1.);
#85=VECTOR('',#770,1.);
#86=VECTOR('',#771,1.);
#87=VECTOR('',#772,1.);
#88=VECTOR('',#773,1.);
#89=VECTOR('',#774,1.);
#90=VECTOR('',#775,1.);
#91=VECTOR('',#776,1.);
#92=VECTOR('',#777,1.);
#93=VECTOR('',#778,1.);
#94=VECTOR('',#783,1.);
#95=VECTOR('',#784,1.);
#96=VECTOR('',#785,1.);
#97=VECTOR('',#788,1.);
#98=VECTOR('',#789,1.);
#99=VECTOR('',#790,1.);
#100=VECTOR('',#793,1.);
#101=VECTOR('',#794,1.);
#102=VECTOR('',#795,1.);
#103=VECTOR('',#798,1.);
#104=VECTOR('',#799,1.);
#105=VECTOR('',#800,1.);
#106=VECTOR('',#803,1.);
#107=VECTOR('',#804,1.);
#108=VECTOR('',#807,1.);
#109=VECTOR('',#808,1.);
#110=VECTOR('',#813,1.);
#111=VECTOR('',#816,1.);
#112=VECTOR('',#817,1.);
#113=VECTOR('',#818,1.);
#114=VECTOR('',#865,1.);
#115=VECTOR('',#866,1.);
#116=VECTOR('',#867,1.);
#117=VECTOR('',#868,1.);
#118=VECTOR('',#869,1.);
#119=VECTOR('',#870,1.);
#120=VECTOR('',#871,1.);
#121=VECTOR('',#872,1.);
#122=VECTOR('',#873,1.);
#123=VECTOR('',#874,1.);
#124=VECTOR('',#879,1.);
#125=VECTOR('',#880,1.);
#126=VECTOR('',#881,1.);
#127=VECTOR('',#884,1.);
#128=VECTOR('',#885,1.);
#129=VECTOR('',#886,1.);
#130=VECTOR('',#889,1.);
#131=VECTOR('',#890,1.);
#132=VECTOR('',#891,1.);
#133=VECTOR('',#894,1.);
#134=VECTOR('',#895,1.);
#135=VECTOR('',#896,1.);
#136=VECTOR('',#899,1.);
#137=VECTOR('',#900,1.);
#138=VECTOR('',#903,1.);
#139=VECTOR('',#904,1.);
#140=VECTOR('',#909,1.);
#141=VECTOR('',#912,1.);
#142=VECTOR('',#913,1.);
#143=VECTOR('',#914,1.);
#144=ORIENTED_EDGE('',*,*,#304,.F.);
#145=ORIENTED_EDGE('',*,*,#305,.T.);
#146=ORIENTED_EDGE('',*,*,#306,.F.);
#147=ORIENTED_EDGE('',*,*,#307,.F.);
#148=ORIENTED_EDGE('',*,*,#308,.T.);
#149=ORIENTED_EDGE('',*,*,#309,.F.);
#150=ORIENTED_EDGE('',*,*,#310,.T.);
#151=ORIENTED_EDGE('',*,*,#311,.F.);
#152=ORIENTED_EDGE('',*,*,#312,.T.);
#153=ORIENTED_EDGE('',*,*,#313,.T.);
#154=ORIENTED_EDGE('',*,*,#314,.F.);
#155=ORIENTED_EDGE('',*,*,#315,.T.);
#156=ORIENTED_EDGE('',*,*,#316,.T.);
#157=ORIENTED_EDGE('',*,*,#317,.T.);
#158=ORIENTED_EDGE('',*,*,#316,.F.);
#159=ORIENTED_EDGE('',*,*,#318,.F.);
#160=ORIENTED_EDGE('',*,*,#319,.T.);
#161=ORIENTED_EDGE('',*,*,#320,.F.);
#162=ORIENTED_EDGE('',*,*,#321,.T.);
#163=ORIENTED_EDGE('',*,*,#322,.F.);
#164=ORIENTED_EDGE('',*,*,#308,.F.);
#165=ORIENTED_EDGE('',*,*,#323,.F.);
#166=ORIENTED_EDGE('',*,*,#310,.F.);
#167=ORIENTED_EDGE('',*,*,#324,.F.);
#168=ORIENTED_EDGE('',*,*,#325,.T.);
#169=ORIENTED_EDGE('',*,*,#326,.F.);
#170=ORIENTED_EDGE('',*,*,#327,.T.);
#171=ORIENTED_EDGE('',*,*,#328,.T.);
#172=ORIENTED_EDGE('',*,*,#312,.F.);
#173=ORIENTED_EDGE('',*,*,#329,.F.);
#174=ORIENTED_EDGE('',*,*,#313,.F.);
#175=ORIENTED_EDGE('',*,*,#328,.F.);
#176=ORIENTED_EDGE('',*,*,#330,.T.);
#177=ORIENTED_EDGE('',*,*,#331,.T.);
#178=ORIENTED_EDGE('',*,*,#314,.T.);
#179=ORIENTED_EDGE('',*,*,#331,.F.);
#180=ORIENTED_EDGE('',*,*,#332,.F.);
#181=ORIENTED_EDGE('',*,*,#333,.T.);
#182=ORIENTED_EDGE('',*,*,#334,.T.);
#183=ORIENTED_EDGE('',*,*,#315,.F.);
#184=ORIENTED_EDGE('',*,*,#333,.F.);
#185=ORIENTED_EDGE('',*,*,#335,.T.);
#186=ORIENTED_EDGE('',*,*,#318,.T.);
#187=ORIENTED_EDGE('',*,*,#319,.F.);
#188=ORIENTED_EDGE('',*,*,#335,.F.);
#189=ORIENTED_EDGE('',*,*,#332,.T.);
#190=ORIENTED_EDGE('',*,*,#330,.F.);
#191=ORIENTED_EDGE('',*,*,#327,.F.);
#192=ORIENTED_EDGE('',*,*,#336,.F.);
#193=ORIENTED_EDGE('',*,*,#325,.F.);
#194=ORIENTED_EDGE('',*,*,#337,.F.);
#195=ORIENTED_EDGE('',*,*,#321,.F.);
#196=ORIENTED_EDGE('',*,*,#338,.F.);
#197=ORIENTED_EDGE('',*,*,#339,.F.);
#198=ORIENTED_EDGE('',*,*,#306,.T.);
#199=ORIENTED_EDGE('',*,*,#339,.T.);
#200=ORIENTED_EDGE('',*,*,#340,.T.);
#201=ORIENTED_EDGE('',*,*,#305,.F.);
#202=ORIENTED_EDGE('',*,*,#340,.F.);
#203=ORIENTED_EDGE('',*,*,#341,.T.);
#204=ORIENTED_EDGE('',*,*,#317,.F.);
#205=ORIENTED_EDGE('',*,*,#341,.F.);
#206=ORIENTED_EDGE('',*,*,#342,.F.);
#207=ORIENTED_EDGE('',*,*,#304,.T.);
#208=ORIENTED_EDGE('',*,*,#342,.T.);
#209=ORIENTED_EDGE('',*,*,#338,.T.);
#210=ORIENTED_EDGE('',*,*,#323,.T.);
#211=ORIENTED_EDGE('',*,*,#307,.T.);
#212=ORIENTED_EDGE('',*,*,#320,.T.);
#213=ORIENTED_EDGE('',*,*,#336,.T.);
#214=ORIENTED_EDGE('',*,*,#329,.T.);
#215=ORIENTED_EDGE('',*,*,#311,.T.);
#216=ORIENTED_EDGE('',*,*,#326,.T.);
#217=ORIENTED_EDGE('',*,*,#337,.T.);
#218=ORIENTED_EDGE('',*,*,#324,.T.);
#219=ORIENTED_EDGE('',*,*,#309,.T.);
#220=ORIENTED_EDGE('',*,*,#322,.T.);
#221=ORIENTED_EDGE('',*,*,#343,.T.);
#222=ORIENTED_EDGE('',*,*,#334,.F.);
#223=ORIENTED_EDGE('',*,*,#343,.F.);
#224=ORIENTED_EDGE('',*,*,#344,.T.);
#225=ORIENTED_EDGE('',*,*,#345,.F.);
#226=ORIENTED_EDGE('',*,*,#346,.T.);
#227=ORIENTED_EDGE('',*,*,#347,.T.);
#228=ORIENTED_EDGE('',*,*,#348,.F.);
#229=ORIENTED_EDGE('',*,*,#349,.F.);
#230=ORIENTED_EDGE('',*,*,#350,.T.);
#231=ORIENTED_EDGE('',*,*,#351,.F.);
#232=ORIENTED_EDGE('',*,*,#352,.F.);
#233=ORIENTED_EDGE('',*,*,#353,.T.);
#234=ORIENTED_EDGE('',*,*,#354,.F.);
#235=ORIENTED_EDGE('',*,*,#355,.T.);
#236=ORIENTED_EDGE('',*,*,#356,.F.);
#237=ORIENTED_EDGE('',*,*,#357,.F.);
#238=ORIENTED_EDGE('',*,*,#348,.T.);
#239=ORIENTED_EDGE('',*,*,#358,.T.);
#240=ORIENTED_EDGE('',*,*,#359,.F.);
#241=ORIENTED_EDGE('',*,*,#360,.T.);
#242=ORIENTED_EDGE('',*,*,#361,.F.);
#243=ORIENTED_EDGE('',*,*,#362,.T.);
#244=ORIENTED_EDGE('',*,*,#356,.T.);
#245=ORIENTED_EDGE('',*,*,#363,.T.);
#246=ORIENTED_EDGE('',*,*,#354,.T.);
#247=ORIENTED_EDGE('',*,*,#364,.T.);
#248=ORIENTED_EDGE('',*,*,#365,.F.);
#249=ORIENTED_EDGE('',*,*,#366,.T.);
#250=ORIENTED_EDGE('',*,*,#367,.F.);
#251=ORIENTED_EDGE('',*,*,#368,.T.);
#252=ORIENTED_EDGE('',*,*,#352,.T.);
#253=ORIENTED_EDGE('',*,*,#369,.F.);
#254=ORIENTED_EDGE('',*,*,#351,.T.);
#255=ORIENTED_EDGE('',*,*,#370,.F.);
#256=ORIENTED_EDGE('',*,*,#371,.F.);
#257=ORIENTED_EDGE('',*,*,#369,.T.);
#258=ORIENTED_EDGE('',*,*,#350,.F.);
#259=ORIENTED_EDGE('',*,*,#372,.F.);
#260=ORIENTED_EDGE('',*,*,#373,.T.);
#261=ORIENTED_EDGE('',*,*,#370,.T.);
#262=ORIENTED_EDGE('',*,*,#374,.F.);
#263=ORIENTED_EDGE('',*,*,#349,.T.);
#264=ORIENTED_EDGE('',*,*,#360,.F.);
#265=ORIENTED_EDGE('',*,*,#375,.F.);
#266=ORIENTED_EDGE('',*,*,#372,.T.);
#267=ORIENTED_EDGE('',*,*,#359,.T.);
#268=ORIENTED_EDGE('',*,*,#376,.T.);
#269=ORIENTED_EDGE('',*,*,#361,.T.);
#270=ORIENTED_EDGE('',*,*,#377,.T.);
#271=ORIENTED_EDGE('',*,*,#365,.T.);
#272=ORIENTED_EDGE('',*,*,#378,.T.);
#273=ORIENTED_EDGE('',*,*,#367,.T.);
#274=ORIENTED_EDGE('',*,*,#371,.T.);
#275=ORIENTED_EDGE('',*,*,#373,.F.);
#276=ORIENTED_EDGE('',*,*,#375,.T.);
#277=ORIENTED_EDGE('',*,*,#379,.T.);
#278=ORIENTED_EDGE('',*,*,#346,.F.);
#279=ORIENTED_EDGE('',*,*,#379,.F.);
#280=ORIENTED_EDGE('',*,*,#380,.F.);
#281=ORIENTED_EDGE('',*,*,#345,.T.);
#282=ORIENTED_EDGE('',*,*,#380,.T.);
#283=ORIENTED_EDGE('',*,*,#381,.F.);
#284=ORIENTED_EDGE('',*,*,#357,.T.);
#285=ORIENTED_EDGE('',*,*,#381,.T.);
#286=ORIENTED_EDGE('',*,*,#382,.T.);
#287=ORIENTED_EDGE('',*,*,#344,.F.);
#288=ORIENTED_EDGE('',*,*,#382,.F.);
#289=ORIENTED_EDGE('',*,*,#376,.F.);
#290=ORIENTED_EDGE('',*,*,#358,.F.);
#291=ORIENTED_EDGE('',*,*,#347,.F.);
#292=ORIENTED_EDGE('',*,*,#362,.F.);
#293=ORIENTED_EDGE('',*,*,#378,.F.);
#294=ORIENTED_EDGE('',*,*,#364,.F.);
#295=ORIENTED_EDGE('',*,*,#353,.F.);
#296=ORIENTED_EDGE('',*,*,#368,.F.);
#297=ORIENTED_EDGE('',*,*,#377,.F.);
#298=ORIENTED_EDGE('',*,*,#363,.F.);
#299=ORIENTED_EDGE('',*,*,#355,.F.);
#300=ORIENTED_EDGE('',*,*,#366,.F.);
#301=ORIENTED_EDGE('',*,*,#383,.F.);
#302=ORIENTED_EDGE('',*,*,#374,.T.);
#303=ORIENTED_EDGE('',*,*,#383,.T.);
#304=EDGE_CURVE('',#384,#384,#444,.T.);
#305=EDGE_CURVE('',#385,#385,#445,.T.);
#306=EDGE_CURVE('',#386,#386,#446,.T.);
#307=EDGE_CURVE('',#387,#388,#24,.F.);
#308=EDGE_CURVE('',#387,#389,#25,.T.);
#309=EDGE_CURVE('',#390,#389,#26,.F.);
#310=EDGE_CURVE('',#390,#391,#27,.T.);
#311=EDGE_CURVE('',#392,#391,#28,.F.);
#312=EDGE_CURVE('',#392,#393,#29,.T.);
#313=EDGE_CURVE('',#393,#394,#30,.T.);
#314=EDGE_CURVE('',#395,#394,#31,.T.);
#315=EDGE_CURVE('',#395,#396,#32,.T.);
#316=EDGE_CURVE('',#396,#388,#33,.T.);
#317=EDGE_CURVE('',#397,#397,#447,.T.);
#318=EDGE_CURVE('',#398,#396,#34,.T.);
#319=EDGE_CURVE('',#398,#399,#35,.T.);
#320=EDGE_CURVE('',#388,#399,#36,.F.);
#321=EDGE_CURVE('',#400,#401,#37,.T.);
#322=EDGE_CURVE('',#389,#401,#38,.T.);
#323=EDGE_CURVE('',#400,#387,#39,.T.);
#324=EDGE_CURVE('',#402,#390,#40,.T.);
#325=EDGE_CURVE('',#402,#403,#41,.T.);
#326=EDGE_CURVE('',#391,#403,#42,.T.);
#327=EDGE_CURVE('',#404,#405,#43,.T.);
#328=EDGE_CURVE('',#405,#393,#44,.T.);
#329=EDGE_CURVE('',#404,#392,#45,.T.);
#330=EDGE_CURVE('',#405,#406,#46,.T.);
#331=EDGE_CURVE('',#406,#394,#47,.T.);
#332=EDGE_CURVE('',#407,#406,#48,.T.);
#333=EDGE_CURVE('',#407,#395,#49,.T.);
#334=EDGE_CURVE('',#408,#408,#448,.T.);
#335=EDGE_CURVE('',#407,#398,#50,.T.);
#336=EDGE_CURVE('',#403,#404,#51,.F.);
#337=EDGE_CURVE('',#401,#402,#52,.F.);
#338=EDGE_CURVE('',#399,#400,#53,.F.);
#339=EDGE_CURVE('',#409,#409,#449,.T.);
#340=EDGE_CURVE('',#410,#410,#450,.T.);
#341=EDGE_CURVE('',#411,#411,#451,.T.);
#342=EDGE_CURVE('',#412,#412,#452,.T.);
#343=EDGE_CURVE('',#413,#413,#453,.T.);
#344=EDGE_CURVE('',#414,#414,#454,.T.);
#345=EDGE_CURVE('',#415,#415,#455,.T.);
#346=EDGE_CURVE('',#416,#416,#456,.T.);
#347=EDGE_CURVE('',#417,#418,#54,.F.);
#348=EDGE_CURVE('',#419,#418,#55,.T.);
#349=EDGE_CURVE('',#420,#419,#56,.T.);
#350=EDGE_CURVE('',#420,#421,#57,.T.);
#351=EDGE_CURVE('',#422,#421,#58,.T.);
#352=EDGE_CURVE('',#423,#422,#59,.T.);
#353=EDGE_CURVE('',#423,#424,#60,.F.);
#354=EDGE_CURVE('',#425,#424,#61,.T.);
#355=EDGE_CURVE('',#425,#426,#62,.F.);
#356=EDGE_CURVE('',#417,#426,#63,.T.);
#357=EDGE_CURVE('',#427,#427,#457,.T.);
#358=EDGE_CURVE('',#418,#428,#64,.F.);
#359=EDGE_CURVE('',#429,#428,#65,.T.);
#360=EDGE_CURVE('',#429,#419,#66,.T.);
#361=EDGE_CURVE('',#430,#431,#67,.T.);
#362=EDGE_CURVE('',#430,#417,#68,.T.);
#363=EDGE_CURVE('',#426,#431,#69,.T.);
#364=EDGE_CURVE('',#424,#432,#70,.T.);
#365=EDGE_CURVE('',#433,#432,#71,.T.);
#366=EDGE_CURVE('',#433,#425,#72,.T.);
#367=EDGE_CURVE('',#434,#435,#73,.T.);
#368=EDGE_CURVE('',#434,#423,#74,.T.);
#369=EDGE_CURVE('',#435,#422,#75,.T.);
#370=EDGE_CURVE('',#436,#421,#76,.T.);
#371=EDGE_CURVE('',#435,#436,#77,.T.);
#372=EDGE_CURVE('',#437,#420,#78,.T.);
#373=EDGE_CURVE('',#437,#436,#79,.T.);
#374=EDGE_CURVE('',#438,#438,#458,.T.);
#375=EDGE_CURVE('',#437,#429,#80,.T.);
#376=EDGE_CURVE('',#428,#430,#81,.F.);
#377=EDGE_CURVE('',#431,#433,#82,.F.);
#378=EDGE_CURVE('',#432,#434,#83,.F.);
#379=EDGE_CURVE('',#439,#439,#459,.T.);
#380=EDGE_CURVE('',#440,#440,#460,.T.);
#381=EDGE_CURVE('',#441,#441,#461,.T.);
#382=EDGE_CURVE('',#442,#442,#462,.T.);
#383=EDGE_CURVE('',#443,#443,#463,.T.);
#384=VERTEX_POINT('',#954);
#385=VERTEX_POINT('',#956);
#386=VERTEX_POINT('',#958);
#387=VERTEX_POINT('',#960);
#388=VERTEX_POINT('',#961);
#389=VERTEX_POINT('',#963);
#390=VERTEX_POINT('',#965);
#391=VERTEX_POINT('',#967);
#392=VERTEX_POINT('',#969);
#393=VERTEX_POINT('',#971);
#394=VERTEX_POINT('',#973);
#395=VERTEX_POINT('',#975);
#396=VERTEX_POINT('',#977);
#397=VERTEX_POINT('',#980);
#398=VERTEX_POINT('',#983);
#399=VERTEX_POINT('',#985);
#400=VERTEX_POINT('',#989);
#401=VERTEX_POINT('',#990);
#402=VERTEX_POINT('',#995);
#403=VERTEX_POINT('',#997);
#404=VERTEX_POINT('',#1001);
#405=VERTEX_POINT('',#1002);
#406=VERTEX_POINT('',#1007);
#407=VERTEX_POINT('',#1011);
#408=VERTEX_POINT('',#1015);
#409=VERTEX_POINT('',#1023);
#410=VERTEX_POINT('',#1027);
#411=VERTEX_POINT('',#1031);
#412=VERTEX_POINT('',#1035);
#413=VERTEX_POINT('',#1042);
#414=VERTEX_POINT('',#1047);
#415=VERTEX_POINT('',#1049);
#416=VERTEX_POINT('',#1051);
#417=VERTEX_POINT('',#1053);
#418=VERTEX_POINT('',#1054);
#419=VERTEX_POINT('',#1056);
#420=VERTEX_POINT('',#1058);
#421=VERTEX_POINT('',#1060);
#422=VERTEX_POINT('',#1062);
#423=VERTEX_POINT('',#1064);
#424=VERTEX_POINT('',#1066);
#425=VERTEX_POINT('',#1068);
#426=VERTEX_POINT('',#1070);
#427=VERTEX_POINT('',#1073);
#428=VERTEX_POINT('',#1076);
#429=VERTEX_POINT('',#1078);
#430=VERTEX_POINT('',#1082);
#431=VERTEX_POINT('',#1083);
#432=VERTEX_POINT('',#1088);
#433=VERTEX_POINT('',#1090);
#434=VERTEX_POINT('',#1094);
#435=VERTEX_POINT('',#1095);
#436=VERTEX_POINT('',#1100);
#437=VERTEX_POINT('',#1104);
#438=VERTEX_POINT('',#1108);
#439=VERTEX_POINT('',#1116);
#440=VERTEX_POINT('',#1120);
#441=VERTEX_POINT('',#1124);
#442=VERTEX_POINT('',#1128);
#443=VERTEX_POINT('',#1135);
#444=CIRCLE('',#695,0.00175);
#445=CIRCLE('',#696,0.00175);
#446=CIRCLE('',#697,0.00175);
#447=CIRCLE('',#698,0.00175);
#448=CIRCLE('',#706,0.00889);
#449=CIRCLE('',#709,0.00175);
#450=CIRCLE('',#712,0.00175);
#451=CIRCLE('',#715,0.00175);
#452=CIRCLE('',#718,0.00175);
#453=CIRCLE('',#724,0.00889);
#454=CIRCLE('',#728,0.00175);
#455=CIRCLE('',#729,0.00175);
#456=CIRCLE('',#730,0.00175);
#457=CIRCLE('',#731,0.00175);
#458=CIRCLE('',#739,0.00889);
#459=CIRCLE('',#742,0.00175);
#460=CIRCLE('',#745,0.00175);
#461=CIRCLE('',#748,0.00175);
#462=CIRCLE('',#751,0.00175);
#463=CIRCLE('',#757,0.00889);
#464=EDGE_LOOP('',(#144));
#465=EDGE_LOOP('',(#145));
#466=EDGE_LOOP('',(#146));
#467=EDGE_LOOP('',(#147,#148,#149,#150,#151,#152,#153,#154,#155,#156));
#468=EDGE_LOOP('',(#157));
#469=EDGE_LOOP('',(#158,#159,#160,#161));
#470=EDGE_LOOP('',(#162,#163,#164,#165));
#471=EDGE_LOOP('',(#166,#167,#168,#169));
#472=EDGE_LOOP('',(#170,#171,#172,#173));
#473=EDGE_LOOP('',(#174,#175,#176,#177));
#474=EDGE_LOOP('',(#178,#179,#180,#181));
#475=EDGE_LOOP('',(#182));
#476=EDGE_LOOP('',(#183,#184,#185,#186));
#477=EDGE_LOOP('',(#187,#188,#189,#190,#191,#192,#193,#194,#195,#196));
#478=EDGE_LOOP('',(#197));
#479=EDGE_LOOP('',(#198));
#480=EDGE_LOOP('',(#199));
#481=EDGE_LOOP('',(#200));
#482=EDGE_LOOP('',(#201));
#483=EDGE_LOOP('',(#202));
#484=EDGE_LOOP('',(#203));
#485=EDGE_LOOP('',(#204));
#486=EDGE_LOOP('',(#205));
#487=EDGE_LOOP('',(#206));
#488=EDGE_LOOP('',(#207));
#489=EDGE_LOOP('',(#208));
#490=EDGE_LOOP('',(#209,#210,#211,#212));
#491=EDGE_LOOP('',(#213,#214,#215,#216));
#492=EDGE_LOOP('',(#217,#218,#219,#220));
#493=EDGE_LOOP('',(#221));
#494=EDGE_LOOP('',(#222));
#495=EDGE_LOOP('',(#223));
#496=EDGE_LOOP('',(#224));
#497=EDGE_LOOP('',(#225));
#498=EDGE_LOOP('',(#226));
#499=EDGE_LOOP('',(#227,#228,#229,#230,#231,#232,#233,#234,#235,#236));
#500=EDGE_LOOP('',(#237));
#501=EDGE_LOOP('',(#238,#239,#240,#241));
#502=EDGE_LOOP('',(#242,#243,#244,#245));
#503=EDGE_LOOP('',(#246,#247,#248,#249));
#504=EDGE_LOOP('',(#250,#251,#252,#253));
#505=EDGE_LOOP('',(#254,#255,#256,#257));
#506=EDGE_LOOP('',(#258,#259,#260,#261));
#507=EDGE_LOOP('',(#262));
#508=EDGE_LOOP('',(#263,#264,#265,#266));
#509=EDGE_LOOP('',(#267,#268,#269,#270,#271,#272,#273,#274,#275,#276));
#510=EDGE_LOOP('',(#277));
#511=EDGE_LOOP('',(#278));
#512=EDGE_LOOP('',(#279));
#513=EDGE_LOOP('',(#280));
#514=EDGE_LOOP('',(#281));
#515=EDGE_LOOP('',(#282));
#516=EDGE_LOOP('',(#283));
#517=EDGE_LOOP('',(#284));
#518=EDGE_LOOP('',(#285));
#519=EDGE_LOOP('',(#286));
#520=EDGE_LOOP('',(#287));
#521=EDGE_LOOP('',(#288));
#522=EDGE_LOOP('',(#289,#290,#291,#292));
#523=EDGE_LOOP('',(#293,#294,#295,#296));
#524=EDGE_LOOP('',(#297,#298,#299,#300));
#525=EDGE_LOOP('',(#301));
#526=EDGE_LOOP('',(#302));
#527=EDGE_LOOP('',(#303));
#528=FACE_BOUND('',#464,.T.);
#529=FACE_BOUND('',#465,.T.);
#530=FACE_BOUND('',#466,.T.);
#531=FACE_BOUND('',#467,.T.);
#532=FACE_BOUND('',#468,.T.);
#533=FACE_BOUND('',#469,.T.);
#534=FACE_BOUND('',#470,.T.);
#535=FACE_BOUND('',#471,.T.);
#536=FACE_BOUND('',#472,.T.);
#537=FACE_BOUND('',#473,.T.);
#538=FACE_BOUND('',#474,.T.);
#539=FACE_BOUND('',#475,.T.);
#540=FACE_BOUND('',#476,.T.);
#541=FACE_BOUND('',#477,.T.);
#542=FACE_BOUND('',#478,.T.);
#543=FACE_BOUND('',#479,.T.);
#544=FACE_BOUND('',#480,.T.);
#545=FACE_BOUND('',#481,.T.);
#546=FACE_BOUND('',#482,.T.);
#547=FACE_BOUND('',#483,.T.);
#548=FACE_BOUND('',#484,.T.);
#549=FACE_BOUND('',#485,.T.);
#550=FACE_BOUND('',#486,.T.);
#551=FACE_BOUND('',#487,.T.);
#552=FACE_BOUND('',#488,.T.);
#553=FACE_BOUND('',#489,.T.);
#554=FACE_BOUND('',#490,.T.);
#555=FACE_BOUND('',#491,.T.);
#556=FACE_BOUND('',#492,.T.);
#557=FACE_BOUND('',#493,.T.);
#558=FACE_BOUND('',#494,.T.);
#559=FACE_BOUND('',#495,.T.);
#560=FACE_BOUND('',#496,.T.);
#561=FACE_BOUND('',#497,.T.);
#562=FACE_BOUND('',#498,.T.);
#563=FACE_BOUND('',#499,.T.);
#564=FACE_BOUND('',#500,.T.);
#565=FACE_BOUND('',#501,.T.);
#566=FACE_BOUND('',#502,.T.);
#567=FACE_BOUND('',#503,.T.);
#568=FACE_BOUND('',#504,.T.);
#569=FACE_BOUND('',#505,.T.);
#570=FACE_BOUND('',#506,.T.);
#571=FACE_BOUND('',#507,.T.);
#572=FACE_BOUND('',#508,.T.);
#573=FACE_BOUND('',#509,.T.);
#574=FACE_BOUND('',#510,.T.);
#575=FACE_BOUND('',#511,.T.);
#576=FACE_BOUND('',#512,.T.);
#577=FACE_BOUND('',#513,.T.);
#578=FACE_BOUND('',#514,.T.);
#579=FACE_BOUND('',#515,.T.);
#580=FACE_BOUND('',#516,.T.);
#581=FACE_BOUND('',#517,.T.);
#582=FACE_BOUND('',#518,.T.);
#583=FACE_BOUND('',#519,.T.);
#584=FACE_BOUND('',#520,.T.);
#585=FACE_BOUND('',#521,.T.);
#586=FACE_BOUND('',#522,.T.);
#587=FACE_BOUND('',#523,.T.);
#588=FACE_BOUND('',#524,.T.);
#589=FACE_BOUND('',#525,.T.);
#590=FACE_BOUND('',#526,.T.);
#591=FACE_BOUND('',#527,.T.);
#592=PLANE('',#694);
#593=PLANE('',#699);
#594=PLANE('',#700);
#595=PLANE('',#701);
#596=PLANE('',#702);
#597=PLANE('',#703);
#598=PLANE('',#704);
#599=PLANE('',#705);
#600=PLANE('',#707);
#601=PLANE('',#710);
#602=PLANE('',#713);
#603=PLANE('',#716);
#604=PLANE('',#719);
#605=PLANE('',#720);
#606=PLANE('',#721);
#607=PLANE('',#722);
#608=PLANE('',#725);
#609=PLANE('',#727);
#610=PLANE('',#732);
#611=PLANE('',#733);
#612=PLANE('',#734);
#613=PLANE('',#735);
#614=PLANE('',#736);
#615=PLANE('',#737);
#616=PLANE('',#738);
#617=PLANE('',#740);
#618=PLANE('',#743);
#619=PLANE('',#746);
#620=PLANE('',#749);
#621=PLANE('',#752);
#622=PLANE('',#753);
#623=PLANE('',#754);
#624=PLANE('',#755);
#625=PLANE('',#758);
#626=ADVANCED_FACE('',(#528,#529,#530,#531,#532),#592,.F.);
#627=ADVANCED_FACE('',(#533),#593,.F.);
#628=ADVANCED_FACE('',(#534),#594,.F.);
#629=ADVANCED_FACE('',(#535),#595,.F.);
#630=ADVANCED_FACE('',(#536),#596,.F.);
#631=ADVANCED_FACE('',(#537),#597,.F.);
#632=ADVANCED_FACE('',(#538),#598,.T.);
#633=ADVANCED_FACE('',(#539,#540),#599,.F.);
#634=ADVANCED_FACE('',(#541),#600,.T.);
#635=ADVANCED_FACE('',(#542,#543),#14,.F.);
#636=ADVANCED_FACE('',(#544),#601,.T.);
#637=ADVANCED_FACE('',(#545,#546),#15,.F.);
#638=ADVANCED_FACE('',(#547),#602,.T.);
#639=ADVANCED_FACE('',(#548,#549),#16,.F.);
#640=ADVANCED_FACE('',(#550),#603,.T.);
#641=ADVANCED_FACE('',(#551,#552),#17,.F.);
#642=ADVANCED_FACE('',(#553),#604,.T.);
#643=ADVANCED_FACE('',(#554),#605,.F.);
#644=ADVANCED_FACE('',(#555),#606,.F.);
#645=ADVANCED_FACE('',(#556),#607,.F.);
#646=ADVANCED_FACE('',(#557,#558),#18,.T.);
#647=ADVANCED_FACE('',(#559),#608,.T.);
#648=ADVANCED_FACE('',(#560,#561,#562,#563,#564),#609,.F.);
#649=ADVANCED_FACE('',(#565),#610,.F.);
#650=ADVANCED_FACE('',(#566),#611,.F.);
#651=ADVANCED_FACE('',(#567),#612,.F.);
#652=ADVANCED_FACE('',(#568),#613,.F.);
#653=ADVANCED_FACE('',(#569),#614,.F.);
#654=ADVANCED_FACE('',(#570),#615,.T.);
#655=ADVANCED_FACE('',(#571,#572),#616,.F.);
#656=ADVANCED_FACE('',(#573),#617,.T.);
#657=ADVANCED_FACE('',(#574,#575),#19,.F.);
#658=ADVANCED_FACE('',(#576),#618,.T.);
#659=ADVANCED_FACE('',(#577,#578),#20,.F.);
#660=ADVANCED_FACE('',(#579),#619,.T.);
#661=ADVANCED_FACE('',(#580,#581),#21,.F.);
#662=ADVANCED_FACE('',(#582),#620,.T.);
#663=ADVANCED_FACE('',(#583,#584),#22,.F.);
#664=ADVANCED_FACE('',(#585),#621,.T.);
#665=ADVANCED_FACE('',(#586),#622,.F.);
#666=ADVANCED_FACE('',(#587),#623,.F.);
#667=ADVANCED_FACE('',(#588),#624,.F.);
#668=ADVANCED_FACE('',(#589,#590),#23,.T.);
#669=ADVANCED_FACE('',(#591),#625,.T.);
#670=CLOSED_SHELL('',(#626,#627,#628,#629,#630,#631,#632,#633,#634,#635,
#636,#637,#638,#639,#640,#641,#642,#643,#644,#645,#646,#647));
#671=CLOSED_SHELL('',(#648,#649,#650,#651,#652,#653,#654,#655,#656,#657,
#658,#659,#660,#661,#662,#663,#664,#665,#666,#667,#668,#669));
#672=STYLED_ITEM('',(#674),#687);
#673=STYLED_ITEM('',(#675),#688);
#674=PRESENTATION_STYLE_ASSIGNMENT((#676));
#675=PRESENTATION_STYLE_ASSIGNMENT((#677));
#676=SURFACE_STYLE_USAGE(.BOTH.,#678);
#677=SURFACE_STYLE_USAGE(.BOTH.,#679);
#678=SURFACE_SIDE_STYLE('',(#680));
#679=SURFACE_SIDE_STYLE('',(#681));
#680=SURFACE_STYLE_FILL_AREA(#682);
#681=SURFACE_STYLE_FILL_AREA(#683);
#682=FILL_AREA_STYLE('',(#684));
#683=FILL_AREA_STYLE('',(#685));
#684=FILL_AREA_STYLE_COLOUR('',#686);
#685=FILL_AREA_STYLE_COLOUR('',#686);
#686=COLOUR_RGB('',0.615686274509804,0.811764705882353,0.929411764705882);
#687=MANIFOLD_SOLID_BREP('Part 2',#670);
#688=MANIFOLD_SOLID_BREP('Part 1',#671);
#689=SHAPE_DEFINITION_REPRESENTATION(#1149,#691);
#690=SHAPE_DEFINITION_REPRESENTATION(#1150,#692);
#691=SHAPE_REPRESENTATION('Part 2',(#693),#1139);
#692=SHAPE_REPRESENTATION('Part 1',(#726),#1140);
#693=AXIS2_PLACEMENT_3D('',#951,#759,#760);
#694=AXIS2_PLACEMENT_3D('',#952,#761,#762);
#695=AXIS2_PLACEMENT_3D('',#953,#763,#764);
#696=AXIS2_PLACEMENT_3D('',#955,#765,#766);
#697=AXIS2_PLACEMENT_3D('',#957,#767,#768);
#698=AXIS2_PLACEMENT_3D('',#979,#779,#780);
#699=AXIS2_PLACEMENT_3D('',#981,#781,#782);
#700=AXIS2_PLACEMENT_3D('',#987,#786,#787);
#701=AXIS2_PLACEMENT_3D('',#993,#791,#792);
#702=AXIS2_PLACEMENT_3D('',#999,#796,#797);
#703=AXIS2_PLACEMENT_3D('',#1005,#801,#802);
#704=AXIS2_PLACEMENT_3D('',#1009,#805,#806);
#705=AXIS2_PLACEMENT_3D('',#1013,#809,#810);
#706=AXIS2_PLACEMENT_3D('',#1014,#811,#812);
#707=AXIS2_PLACEMENT_3D('',#1017,#814,#815);
#708=AXIS2_PLACEMENT_3D('',#1021,#819,#820);
#709=AXIS2_PLACEMENT_3D('',#1022,#821,#822);
#710=AXIS2_PLACEMENT_3D('',#1024,#823,#824);
#711=AXIS2_PLACEMENT_3D('',#1025,#825,#826);
#712=AXIS2_PLACEMENT_3D('',#1026,#827,#828);
#713=AXIS2_PLACEMENT_3D('',#1028,#829,#830);
#714=AXIS2_PLACEMENT_3D('',#1029,#831,#832);
#715=AXIS2_PLACEMENT_3D('',#1030,#833,#834);
#716=AXIS2_PLACEMENT_3D('',#1032,#835,#836);
#717=AXIS2_PLACEMENT_3D('',#1033,#837,#838);
#718=AXIS2_PLACEMENT_3D('',#1034,#839,#840);
#719=AXIS2_PLACEMENT_3D('',#1036,#841,#842);
#720=AXIS2_PLACEMENT_3D('',#1037,#843,#844);
#721=AXIS2_PLACEMENT_3D('',#1038,#845,#846);
#722=AXIS2_PLACEMENT_3D('',#1039,#847,#848);
#723=AXIS2_PLACEMENT_3D('',#1040,#849,#850);
#724=AXIS2_PLACEMENT_3D('',#1041,#851,#852);
#725=AXIS2_PLACEMENT_3D('',#1043,#853,#854);
#726=AXIS2_PLACEMENT_3D('',#1044,#855,#856);
#727=AXIS2_PLACEMENT_3D('',#1045,#857,#858);
#728=AXIS2_PLACEMENT_3D('',#1046,#859,#860);
#729=AXIS2_PLACEMENT_3D('',#1048,#861,#862);
#730=AXIS2_PLACEMENT_3D('',#1050,#863,#864);
#731=AXIS2_PLACEMENT_3D('',#1072,#875,#876);
#732=AXIS2_PLACEMENT_3D('',#1074,#877,#878);
#733=AXIS2_PLACEMENT_3D('',#1080,#882,#883);
#734=AXIS2_PLACEMENT_3D('',#1086,#887,#888);
#735=AXIS2_PLACEMENT_3D('',#1092,#892,#893);
#736=AXIS2_PLACEMENT_3D('',#1098,#897,#898);
#737=AXIS2_PLACEMENT_3D('',#1102,#901,#902);
#738=AXIS2_PLACEMENT_3D('',#1106,#905,#906);
#739=AXIS2_PLACEMENT_3D('',#1107,#907,#908);
#740=AXIS2_PLACEMENT_3D('',#1110,#910,#911);
#741=AXIS2_PLACEMENT_3D('',#1114,#915,#916);
#742=AXIS2_PLACEMENT_3D('',#1115,#917,#918);
#743=AXIS2_PLACEMENT_3D('',#1117,#919,#920);
#744=AXIS2_PLACEMENT_3D('',#1118,#921,#922);
#745=AXIS2_PLACEMENT_3D('',#1119,#923,#924);
#746=AXIS2_PLACEMENT_3D('',#1121,#925,#926);
#747=AXIS2_PLACEMENT_3D('',#1122,#927,#928);
#748=AXIS2_PLACEMENT_3D('',#1123,#929,#930);
#749=AXIS2_PLACEMENT_3D('',#1125,#931,#932);
#750=AXIS2_PLACEMENT_3D('',#1126,#933,#934);
#751=AXIS2_PLACEMENT_3D('',#1127,#935,#936);
#752=AXIS2_PLACEMENT_3D('',#1129,#937,#938);
#753=AXIS2_PLACEMENT_3D('',#1130,#939,#940);
#754=AXIS2_PLACEMENT_3D('',#1131,#941,#942);
#755=AXIS2_PLACEMENT_3D('',#1132,#943,#944);
#756=AXIS2_PLACEMENT_3D('',#1133,#945,#946);
#757=AXIS2_PLACEMENT_3D('',#1134,#947,#948);
#758=AXIS2_PLACEMENT_3D('',#1136,#949,#950);
#759=DIRECTION('',(0.,0.,1.));
#760=DIRECTION('',(1.,0.,0.));
#761=DIRECTION('',(0.,0.,1.));
#762=DIRECTION('',(-1.,0.,0.));
#763=DIRECTION('',(0.,0.,-1.));
#764=DIRECTION('',(1.,0.,0.));
#765=DIRECTION('',(0.,0.,1.));
#766=DIRECTION('',(1.,0.,0.));
#767=DIRECTION('',(0.,0.,-1.));
#768=DIRECTION('',(1.,0.,0.));
#769=DIRECTION('',(0.996194698091746,0.0871557427476592,0.));
#770=DIRECTION('',(0.766044443118978,-0.64278760968654,0.));
#771=DIRECTION('',(0.0871557427476575,-0.996194698091746,0.));
#772=DIRECTION('',(-0.642787609686539,-0.766044443118979,0.));
#773=DIRECTION('',(-0.996194698091745,-0.0871557427476605,0.));
#774=DIRECTION('',(-0.766044443118978,0.642787609686539,0.));
#775=DIRECTION('',(0.64278760968654,0.766044443118978,0.));
#776=DIRECTION('',(-3.36227445374064E-16,-1.,0.));
#777=DIRECTION('',(1.,0.,0.));
#778=DIRECTION('',(-3.02005052613716E-16,-1.,0.));
#779=DIRECTION('',(0.,0.,1.));
#780=DIRECTION('',(1.,0.,0.));
#781=DIRECTION('',(-1.,3.02005052613716E-16,0.));
#782=DIRECTION('',(3.02005052613716E-16,1.,0.));
#783=DIRECTION('',(0.,0.,-1.));
#784=DIRECTION('',(-3.02005052613716E-16,-1.,0.));
#785=DIRECTION('',(0.,0.,-1.));
#786=DIRECTION('',(-0.64278760968654,-0.766044443118978,0.));
#787=DIRECTION('',(-0.766044443118978,0.64278760968654,0.));
#788=DIRECTION('',(0.766044443118978,-0.64278760968654,0.));
#789=DIRECTION('',(0.,0.,1.));
#790=DIRECTION('',(0.,0.,-1.));
#791=DIRECTION('',(-0.766044443118979,0.642787609686539,0.));
#792=DIRECTION('',(0.642787609686539,0.766044443118979,0.));
#793=DIRECTION('',(0.,0.,-1.));
#794=DIRECTION('',(-0.642787609686539,-0.766044443118979,0.));
#795=DIRECTION('',(0.,0.,1.));
#796=DIRECTION('',(0.642787609686539,0.766044443118978,0.));
#797=DIRECTION('',(0.766044443118978,-0.642787609686539,0.));
#798=DIRECTION('',(-0.766044443118978,0.642787609686539,0.));
#799=DIRECTION('',(0.,0.,-1.));
#800=DIRECTION('',(0.,0.,-1.));
#801=DIRECTION('',(0.766044443118978,-0.64278760968654,0.));
#802=DIRECTION('',(-0.64278760968654,-0.766044443118978,0.));
#803=DIRECTION('',(0.64278760968654,0.766044443118978,0.));
#804=DIRECTION('',(0.,0.,-1.));
#805=DIRECTION('',(-1.,3.36227445374064E-16,0.));
#806=DIRECTION('',(3.36227445374064E-16,1.,0.));
#807=DIRECTION('',(-3.36227445374064E-16,-1.,0.));
#808=DIRECTION('',(0.,0.,-1.));
#809=DIRECTION('',(0.,-1.,0.));
#810=DIRECTION('',(0.,0.,-1.));
#811=DIRECTION('',(0.,-1.,0.));
#812=DIRECTION('',(0.,0.,1.));
#813=DIRECTION('',(1.,0.,0.));
#814=DIRECTION('',(0.,0.,1.));
#815=DIRECTION('',(-1.,0.,0.));
#816=DIRECTION('',(0.996194698091745,0.0871557427476605,0.));
#817=DIRECTION('',(-0.0871557427476575,0.996194698091746,0.));
#818=DIRECTION('',(-0.996194698091746,-0.0871557427476592,0.));
#819=DIRECTION('',(0.,0.,-1.));
#820=DIRECTION('',(1.,0.,0.));
#821=DIRECTION('',(0.,0.,-1.));
#822=DIRECTION('',(1.,0.,0.));
#823=DIRECTION('',(0.,0.,-1.));
#824=DIRECTION('',(-1.,0.,0.));
#825=DIRECTION('',(0.,0.,-1.));
#826=DIRECTION('',(1.,0.,0.));
#827=DIRECTION('',(0.,0.,1.));
#828=DIRECTION('',(1.,0.,0.));
#829=DIRECTION('',(0.,0.,-1.));
#830=DIRECTION('',(-1.,0.,0.));
#831=DIRECTION('',(0.,0.,-1.));
#832=DIRECTION('',(1.,0.,0.));
#833=DIRECTION('',(0.,0.,1.));
#834=DIRECTION('',(1.,0.,0.));
#835=DIRECTION('',(0.,0.,-1.));
#836=DIRECTION('',(-1.,0.,0.));
#837=DIRECTION('',(0.,0.,-1.));
#838=DIRECTION('',(1.,0.,0.));
#839=DIRECTION('',(0.,0.,-1.));
#840=DIRECTION('',(1.,0.,0.));
#841=DIRECTION('',(0.,0.,-1.));
#842=DIRECTION('',(-1.,0.,0.));
#843=DIRECTION('',(0.0871557427476592,-0.996194698091745,0.));
#844=DIRECTION('',(0.,0.,-1.));
#845=DIRECTION('',(-0.0871557427476605,0.996194698091745,0.));
#846=DIRECTION('',(0.,0.,-1.));
#847=DIRECTION('',(-0.996194698091746,-0.0871557427476575,0.));
#848=DIRECTION('',(0.,0.,-1.));
#849=DIRECTION('',(0.,-1.,0.));
#850=DIRECTION('',(0.,0.,-1.));
#851=DIRECTION('',(0.,-1.,0.));
#852=DIRECTION('',(0.,0.,1.));
#853=DIRECTION('',(0.,1.,0.));
#854=DIRECTION('',(1.,0.,0.));
#855=DIRECTION('',(0.,0.,1.));
#856=DIRECTION('',(1.,0.,0.));
#857=DIRECTION('',(0.,0.,1.));
#858=DIRECTION('',(1.,0.,0.));
#859=DIRECTION('',(0.,0.,1.));
#860=DIRECTION('',(-1.,0.,0.));
#861=DIRECTION('',(0.,0.,-1.));
#862=DIRECTION('',(-1.,0.,0.));
#863=DIRECTION('',(0.,0.,1.));
#864=DIRECTION('',(-1.,0.,0.));
#865=DIRECTION('',(-0.996194698091746,0.0871557427476592,0.));
#866=DIRECTION('',(3.02005052613716E-16,-1.,0.));
#867=DIRECTION('',(-1.,0.,0.));
#868=DIRECTION('',(3.36227445374064E-16,-1.,0.));
#869=DIRECTION('',(-0.64278760968654,0.766044443118978,0.));
#870=DIRECTION('',(0.766044443118978,0.642787609686539,0.));
#871=DIRECTION('',(0.996194698091745,-0.0871557427476605,0.));
#872=DIRECTION('',(0.642787609686539,-0.766044443118979,0.));
#873=DIRECTION('',(-0.0871557427476575,-0.996194698091746,0.));
#874=DIRECTION('',(-0.766044443118978,-0.64278760968654,0.));
#875=DIRECTION('',(0.,0.,-1.));
#876=DIRECTION('',(-1.,0.,0.));
#877=DIRECTION('',(1.,3.02005052613716E-16,0.));
#878=DIRECTION('',(-3.02005052613716E-16,1.,0.));
#879=DIRECTION('',(0.,0.,-1.));
#880=DIRECTION('',(3.02005052613716E-16,-1.,0.));
#881=DIRECTION('',(0.,0.,-1.));
#882=DIRECTION('',(0.64278760968654,-0.766044443118978,0.));
#883=DIRECTION('',(0.766044443118978,0.64278760968654,0.));
#884=DIRECTION('',(-0.766044443118978,-0.64278760968654,0.));
#885=DIRECTION('',(0.,0.,-1.));
#886=DIRECTION('',(0.,0.,1.));
#887=DIRECTION('',(0.766044443118979,0.642787609686539,0.));
#888=DIRECTION('',(-0.642787609686539,0.766044443118979,0.));
#889=DIRECTION('',(0.,0.,1.));
#890=DIRECTION('',(0.642787609686539,-0.766044443118979,0.));
#891=DIRECTION('',(0.,0.,-1.));
#892=DIRECTION('',(-0.642787609686539,0.766044443118978,0.));
#893=DIRECTION('',(-0.766044443118978,-0.642787609686539,0.));
#894=DIRECTION('',(0.766044443118978,0.642787609686539,0.));
#895=DIRECTION('',(0.,0.,-1.));
#896=DIRECTION('',(0.,0.,-1.));
#897=DIRECTION('',(-0.766044443118978,-0.64278760968654,0.));
#898=DIRECTION('',(0.64278760968654,-0.766044443118978,0.));
#899=DIRECTION('',(0.,0.,-1.));
#900=DIRECTION('',(-0.64278760968654,0.766044443118978,0.));
#901=DIRECTION('',(1.,3.36227445374064E-16,0.));
#902=DIRECTION('',(-3.36227445374064E-16,1.,0.));
#903=DIRECTION('',(0.,0.,-1.));
#904=DIRECTION('',(3.36227445374064E-16,-1.,0.));
#905=DIRECTION('',(0.,-1.,0.));
#906=DIRECTION('',(0.,0.,-1.));
#907=DIRECTION('',(0.,1.,0.));
#908=DIRECTION('',(0.,0.,1.));
#909=DIRECTION('',(-1.,0.,0.));
#910=DIRECTION('',(0.,0.,1.));
#911=DIRECTION('',(1.,0.,0.));
#912=DIRECTION('',(0.996194698091746,-0.0871557427476592,0.));
#913=DIRECTION('',(0.0871557427476575,0.996194698091746,0.));
#914=DIRECTION('',(-0.996194698091745,0.0871557427476605,0.));
#915=DIRECTION('',(0.,0.,-1.));
#916=DIRECTION('',(-1.,0.,0.));
#917=DIRECTION('',(0.,0.,1.));
#918=DIRECTION('',(-1.,0.,0.));
#919=DIRECTION('',(0.,0.,-1.));
#920=DIRECTION('',(1.,0.,0.));
#921=DIRECTION('',(0.,0.,-1.));
#922=DIRECTION('',(-1.,0.,0.));
#923=DIRECTION('',(0.,0.,-1.));
#924=DIRECTION('',(-1.,0.,0.));
#925=DIRECTION('',(0.,0.,-1.));
#926=DIRECTION('',(1.,0.,0.));
#927=DIRECTION('',(0.,0.,-1.));
#928=DIRECTION('',(-1.,0.,0.));
#929=DIRECTION('',(0.,0.,-1.));
#930=DIRECTION('',(-1.,0.,0.));
#931=DIRECTION('',(0.,0.,-1.));
#932=DIRECTION('',(1.,0.,0.));
#933=DIRECTION('',(0.,0.,-1.));
#934=DIRECTION('',(-1.,0.,0.));
#935=DIRECTION('',(0.,0.,1.));
#936=DIRECTION('',(-1.,0.,0.));
#937=DIRECTION('',(0.,0.,-1.));
#938=DIRECTION('',(1.,0.,0.));
#939=DIRECTION('',(-0.0871557427476592,-0.996194698091745,0.));
#940=DIRECTION('',(0.,0.,-1.));
#941=DIRECTION('',(0.0871557427476605,0.996194698091745,0.));
#942=DIRECTION('',(0.,0.,-1.));
#943=DIRECTION('',(0.996194698091746,-0.0871557427476575,0.));
#944=DIRECTION('',(0.,0.,-1.));
#945=DIRECTION('',(0.,-1.,0.));
#946=DIRECTION('',(0.,0.,-1.));
#947=DIRECTION('',(0.,1.,0.));
#948=DIRECTION('',(0.,0.,1.));
#949=DIRECTION('',(0.,1.,0.));
#950=DIRECTION('',(-1.,0.,0.));
#951=CARTESIAN_POINT('',(0.,0.,0.));
#952=CARTESIAN_POINT('',(0.105501983898757,-0.0438804180402673,0.));
#953=CARTESIAN_POINT('',(0.114602050975668,-0.231752467021034,0.));
#954=CARTESIAN_POINT('',(0.116352050975668,-0.231752467021034,0.));
#955=CARTESIAN_POINT('',(0.112035106717994,-0.202184991965189,0.));
#956=CARTESIAN_POINT('',(0.113785106717994,-0.202184991965189,0.));
#957=CARTESIAN_POINT('',(0.128100590779086,-0.215665533715536,0.));
#958=CARTESIAN_POINT('',(0.129850590779086,-0.215665533715536,0.));
#959=CARTESIAN_POINT('',(0.185709180285726,-0.114890816077353,0.));
#960=CARTESIAN_POINT('',(0.185709180285726,-0.114890816077353,0.));
#961=CARTESIAN_POINT('',(0.17272,-0.116027222100848,0.));
#962=CARTESIAN_POINT('',(0.193492191827814,-0.121421538191768,0.));
#963=CARTESIAN_POINT('',(0.201275203369903,-0.127952260306183,0.));
#964=CARTESIAN_POINT('',(0.202840565154495,-0.145844427376813,0.));
#965=CARTESIAN_POINT('',(0.202840565154495,-0.145844427376813,0.));
#966=CARTESIAN_POINT('',(0.1620235519394,-0.194488249514868,0.));
#967=CARTESIAN_POINT('',(0.121206538724304,-0.243132071652923,0.));
#968=CARTESIAN_POINT('',(0.103314371653674,-0.244697433437515,0.));
#969=CARTESIAN_POINT('',(0.103314371653674,-0.244697433437515,0.));
#970=CARTESIAN_POINT('',(0.0955313601115854,-0.2381667113231,0.));
#971=CARTESIAN_POINT('',(0.0780195841418856,-0.223472586565666,0.));
#972=CARTESIAN_POINT('',(0.102509792070943,-0.194286293282833,0.));
#973=CARTESIAN_POINT('',(0.127,-0.1651,0.));
#974=CARTESIAN_POINT('',(0.127,-0.08255,0.));
#975=CARTESIAN_POINT('',(0.127,0.1651,0.));
#976=CARTESIAN_POINT('',(0.14986,0.1651,0.));
#977=CARTESIAN_POINT('',(0.17272,0.1651,0.));
#978=CARTESIAN_POINT('',(0.17272,0.0272434871267037,0.));
#979=CARTESIAN_POINT('',(0.0985365669145771,-0.218271925270689,0.));
#980=CARTESIAN_POINT('',(0.100286566914577,-0.218271925270689,0.));
#981=CARTESIAN_POINT('',(0.17272,0.0272434871267037,0.0635));
#982=CARTESIAN_POINT('',(0.17272,0.1651,0.0635));
#983=CARTESIAN_POINT('',(0.17272,0.1651,0.0635));
#984=CARTESIAN_POINT('',(0.17272,0.0272434871267037,0.0635));
#985=CARTESIAN_POINT('',(0.17272,-0.116027222100848,0.0635));
#986=CARTESIAN_POINT('',(0.17272,-0.116027222100848,0.0635));
#987=CARTESIAN_POINT('',(0.193492191827814,-0.121421538191768,0.0635));
#988=CARTESIAN_POINT('',(0.193492191827814,-0.121421538191768,0.0635));
#989=CARTESIAN_POINT('',(0.185709180285726,-0.114890816077353,0.0635));
#990=CARTESIAN_POINT('',(0.201275203369903,-0.127952260306183,0.0635));
#991=CARTESIAN_POINT('',(0.201275203369903,-0.127952260306183,0.0635));
#992=CARTESIAN_POINT('',(0.185709180285726,-0.114890816077353,0.0635));
#993=CARTESIAN_POINT('',(0.1620235519394,-0.194488249514868,0.0635));
#994=CARTESIAN_POINT('',(0.202840565154495,-0.145844427376813,0.0635));
#995=CARTESIAN_POINT('',(0.202840565154495,-0.145844427376813,0.0635));
#996=CARTESIAN_POINT('',(0.1620235519394,-0.194488249514868,0.0635));
#997=CARTESIAN_POINT('',(0.121206538724304,-0.243132071652923,0.0635));
#998=CARTESIAN_POINT('',(0.121206538724304,-0.243132071652923,0.0635));
#999=CARTESIAN_POINT('',(0.0955313601115854,-0.2381667113231,0.0635));
#1000=CARTESIAN_POINT('',(0.0955313601115854,-0.2381667113231,0.0635));
#1001=CARTESIAN_POINT('',(0.103314371653674,-0.244697433437515,0.0635));
#1002=CARTESIAN_POINT('',(0.0780195841418856,-0.223472586565666,0.0635));
#1003=CARTESIAN_POINT('',(0.0780195841418856,-0.223472586565666,0.0635));
#1004=CARTESIAN_POINT('',(0.103314371653674,-0.244697433437515,0.0635));
#1005=CARTESIAN_POINT('',(0.102509792070943,-0.194286293282833,0.0635));
#1006=CARTESIAN_POINT('',(0.102509792070943,-0.194286293282833,0.0635));
#1007=CARTESIAN_POINT('',(0.127,-0.1651,0.0635));
#1008=CARTESIAN_POINT('',(0.127,-0.1651,0.0635));
#1009=CARTESIAN_POINT('',(0.127,-0.08255,0.0635));
#1010=CARTESIAN_POINT('',(0.127,-0.08255,0.0635));
#1011=CARTESIAN_POINT('',(0.127,0.1651,0.0635));
#1012=CARTESIAN_POINT('',(0.127,0.1651,0.0635));
#1013=CARTESIAN_POINT('',(0.14986,0.1651,0.0635));
#1014=CARTESIAN_POINT('',(0.14986,0.1651,0.03175));
#1015=CARTESIAN_POINT('',(0.14986,0.1651,0.04064));
#1016=CARTESIAN_POINT('',(0.14986,0.1651,0.0635));
#1017=CARTESIAN_POINT('',(0.105501983898757,-0.0438804180402673,0.0635));
#1018=CARTESIAN_POINT('',(0.122921120910109,-0.242982065148982,0.0635));
#1019=CARTESIAN_POINT('',(0.193248237066103,-0.0362036156212489,0.0635));
#1020=CARTESIAN_POINT('',(0.112276660774883,-0.121315329068698,0.0635));
#1021=CARTESIAN_POINT('',(0.128100590779086,-0.215665533715536,0.017));
#1022=CARTESIAN_POINT('',(0.128100590779086,-0.215665533715536,0.017));
#1023=CARTESIAN_POINT('',(0.129850590779086,-0.215665533715536,0.017));
#1024=CARTESIAN_POINT('',(0.1445117759697,-0.0438804180402673,0.017));
#1025=CARTESIAN_POINT('',(0.112035106717994,-0.202184991965189,0.017));
#1026=CARTESIAN_POINT('',(0.112035106717994,-0.202184991965189,0.017));
#1027=CARTESIAN_POINT('',(0.113785106717994,-0.202184991965189,0.017));
#1028=CARTESIAN_POINT('',(0.1445117759697,-0.0438804180402673,0.017));
#1029=CARTESIAN_POINT('',(0.0985365669145771,-0.218271925270689,0.017));
#1030=CARTESIAN_POINT('',(0.0985365669145771,-0.218271925270689,0.017));
#1031=CARTESIAN_POINT('',(0.100286566914577,-0.218271925270689,0.017));
#1032=CARTESIAN_POINT('',(0.1445117759697,-0.0438804180402673,0.017));
#1033=CARTESIAN_POINT('',(0.114602050975668,-0.231752467021034,0.017));
#1034=CARTESIAN_POINT('',(0.114602050975668,-0.231752467021034,0.017));
#1035=CARTESIAN_POINT('',(0.116352050975668,-0.231752467021034,0.017));
#1036=CARTESIAN_POINT('',(0.1445117759697,-0.0438804180402673,0.017));
#1037=CARTESIAN_POINT('',(0.185709180285726,-0.114890816077353,0.0635));
#1038=CARTESIAN_POINT('',(0.103314371653674,-0.244697433437515,0.0635));
#1039=CARTESIAN_POINT('',(0.202840565154495,-0.145844427376813,0.0635));
#1040=CARTESIAN_POINT('',(0.14986,0.1905,0.03175));
#1041=CARTESIAN_POINT('',(0.14986,0.1905,0.03175));
#1042=CARTESIAN_POINT('',(0.14986,0.1905,0.04064));
#1043=CARTESIAN_POINT('',(0.14986,0.1905,0.03175));
#1044=CARTESIAN_POINT('',(0.,0.,0.));
#1045=CARTESIAN_POINT('',(-0.105501983898757,-0.0438804180402673,0.));
#1046=CARTESIAN_POINT('',(-0.114602050975668,-0.231752467021034,0.));
#1047=CARTESIAN_POINT('',(-0.116352050975668,-0.231752467021034,0.));
#1048=CARTESIAN_POINT('',(-0.112035106717994,-0.202184991965189,0.));
#1049=CARTESIAN_POINT('',(-0.113785106717994,-0.202184991965189,0.));
#1050=CARTESIAN_POINT('',(-0.128100590779086,-0.215665533715536,0.));
#1051=CARTESIAN_POINT('',(-0.129850590779086,-0.215665533715536,0.));
#1052=CARTESIAN_POINT('',(-0.185709180285726,-0.114890816077353,0.));
#1053=CARTESIAN_POINT('',(-0.185709180285726,-0.114890816077353,0.));
#1054=CARTESIAN_POINT('',(-0.17272,-0.116027222100848,0.));
#1055=CARTESIAN_POINT('',(-0.17272,0.0272434871267037,0.));
#1056=CARTESIAN_POINT('',(-0.17272,0.1651,0.));
#1057=CARTESIAN_POINT('',(-0.14986,0.1651,0.));
#1058=CARTESIAN_POINT('',(-0.127,0.1651,0.));
#1059=CARTESIAN_POINT('',(-0.127,-0.08255,0.));
#1060=CARTESIAN_POINT('',(-0.127,-0.1651,0.));
#1061=CARTESIAN_POINT('',(-0.102509792070943,-0.194286293282833,0.));
#1062=CARTESIAN_POINT('',(-0.0780195841418856,-0.223472586565666,0.));
#1063=CARTESIAN_POINT('',(-0.0955313601115854,-0.2381667113231,0.));
#1064=CARTESIAN_POINT('',(-0.103314371653674,-0.244697433437515,0.));
#1065=CARTESIAN_POINT('',(-0.103314371653674,-0.244697433437515,0.));
#1066=CARTESIAN_POINT('',(-0.121206538724304,-0.243132071652923,0.));
#1067=CARTESIAN_POINT('',(-0.1620235519394,-0.194488249514868,0.));
#1068=CARTESIAN_POINT('',(-0.202840565154495,-0.145844427376813,0.));
#1069=CARTESIAN_POINT('',(-0.202840565154495,-0.145844427376813,0.));
#1070=CARTESIAN_POINT('',(-0.201275203369903,-0.127952260306183,0.));
#1071=CARTESIAN_POINT('',(-0.193492191827814,-0.121421538191768,0.));
#1072=CARTESIAN_POINT('',(-0.0985365669145771,-0.218271925270689,0.));
#1073=CARTESIAN_POINT('',(-0.100286566914577,-0.218271925270689,0.));
#1074=CARTESIAN_POINT('',(-0.17272,0.0272434871267037,0.0635));
#1075=CARTESIAN_POINT('',(-0.17272,-0.116027222100848,0.0635));
#1076=CARTESIAN_POINT('',(-0.17272,-0.116027222100848,0.0635));
#1077=CARTESIAN_POINT('',(-0.17272,0.0272434871267037,0.0635));
#1078=CARTESIAN_POINT('',(-0.17272,0.1651,0.0635));
#1079=CARTESIAN_POINT('',(-0.17272,0.1651,0.0635));
#1080=CARTESIAN_POINT('',(-0.193492191827814,-0.121421538191768,0.0635));
#1081=CARTESIAN_POINT('',(-0.193492191827814,-0.121421538191768,0.0635));
#1082=CARTESIAN_POINT('',(-0.185709180285726,-0.114890816077353,0.0635));
#1083=CARTESIAN_POINT('',(-0.201275203369903,-0.127952260306183,0.0635));
#1084=CARTESIAN_POINT('',(-0.185709180285726,-0.114890816077353,0.0635));
#1085=CARTESIAN_POINT('',(-0.201275203369903,-0.127952260306183,0.0635));
#1086=CARTESIAN_POINT('',(-0.1620235519394,-0.194488249514868,0.0635));
#1087=CARTESIAN_POINT('',(-0.121206538724304,-0.243132071652923,0.0635));
#1088=CARTESIAN_POINT('',(-0.121206538724304,-0.243132071652923,0.0635));
#1089=CARTESIAN_POINT('',(-0.1620235519394,-0.194488249514868,0.0635));
#1090=CARTESIAN_POINT('',(-0.202840565154495,-0.145844427376813,0.0635));
#1091=CARTESIAN_POINT('',(-0.202840565154495,-0.145844427376813,0.0635));
#1092=CARTESIAN_POINT('',(-0.0955313601115854,-0.2381667113231,0.0635));
#1093=CARTESIAN_POINT('',(-0.0955313601115854,-0.2381667113231,0.0635));
#1094=CARTESIAN_POINT('',(-0.103314371653674,-0.244697433437515,0.0635));
#1095=CARTESIAN_POINT('',(-0.0780195841418856,-0.223472586565666,0.0635));
#1096=CARTESIAN_POINT('',(-0.103314371653674,-0.244697433437515,0.0635));
#1097=CARTESIAN_POINT('',(-0.0780195841418856,-0.223472586565666,0.0635));
#1098=CARTESIAN_POINT('',(-0.102509792070943,-0.194286293282833,0.0635));
#1099=CARTESIAN_POINT('',(-0.127,-0.1651,0.0635));
#1100=CARTESIAN_POINT('',(-0.127,-0.1651,0.0635));
#1101=CARTESIAN_POINT('',(-0.102509792070943,-0.194286293282833,0.0635));
#1102=CARTESIAN_POINT('',(-0.127,-0.08255,0.0635));
#1103=CARTESIAN_POINT('',(-0.127,0.1651,0.0635));
#1104=CARTESIAN_POINT('',(-0.127,0.1651,0.0635));
#1105=CARTESIAN_POINT('',(-0.127,-0.08255,0.0635));
#1106=CARTESIAN_POINT('',(-0.14986,0.1651,0.0635));
#1107=CARTESIAN_POINT('',(-0.14986,0.1651,0.03175));
#1108=CARTESIAN_POINT('',(-0.14986,0.1651,0.04064));
#1109=CARTESIAN_POINT('',(-0.14986,0.1651,0.0635));
#1110=CARTESIAN_POINT('',(-0.105501983898757,-0.0438804180402673,0.0635));
#1111=CARTESIAN_POINT('',(-0.112276660774883,-0.121315329068698,0.0635));
#1112=CARTESIAN_POINT('',(-0.193248237066103,-0.0362036156212489,0.0635));
#1113=CARTESIAN_POINT('',(-0.122921120910109,-0.242982065148982,0.0635));
#1114=CARTESIAN_POINT('',(-0.128100590779086,-0.215665533715536,0.017));
#1115=CARTESIAN_POINT('',(-0.128100590779086,-0.215665533715536,0.017));
#1116=CARTESIAN_POINT('',(-0.129850590779086,-0.215665533715536,0.017));
#1117=CARTESIAN_POINT('',(-0.1445117759697,-0.0438804180402673,0.017));
#1118=CARTESIAN_POINT('',(-0.112035106717994,-0.202184991965189,0.017));
#1119=CARTESIAN_POINT('',(-0.112035106717994,-0.202184991965189,0.017));
#1120=CARTESIAN_POINT('',(-0.113785106717994,-0.202184991965189,0.017));
#1121=CARTESIAN_POINT('',(-0.1445117759697,-0.0438804180402673,0.017));
#1122=CARTESIAN_POINT('',(-0.0985365669145771,-0.218271925270689,0.017));
#1123=CARTESIAN_POINT('',(-0.0985365669145771,-0.218271925270689,0.017));
#1124=CARTESIAN_POINT('',(-0.100286566914577,-0.218271925270689,0.017));
#1125=CARTESIAN_POINT('',(-0.1445117759697,-0.0438804180402673,0.017));
#1126=CARTESIAN_POINT('',(-0.114602050975668,-0.231752467021034,0.017));
#1127=CARTESIAN_POINT('',(-0.114602050975668,-0.231752467021034,0.017));
#1128=CARTESIAN_POINT('',(-0.116352050975668,-0.231752467021034,0.017));
#1129=CARTESIAN_POINT('',(-0.1445117759697,-0.0438804180402673,0.017));
#1130=CARTESIAN_POINT('',(-0.185709180285726,-0.114890816077353,0.0635));
#1131=CARTESIAN_POINT('',(-0.103314371653674,-0.244697433437515,0.0635));
#1132=CARTESIAN_POINT('',(-0.202840565154495,-0.145844427376813,0.0635));
#1133=CARTESIAN_POINT('',(-0.14986,0.1905,0.03175));
#1134=CARTESIAN_POINT('',(-0.14986,0.1905,0.03175));
#1135=CARTESIAN_POINT('',(-0.14986,0.1905,0.04064));
#1136=CARTESIAN_POINT('',(-0.14986,0.1905,0.03175));
#1137=MECHANICAL_DESIGN_GEOMETRIC_PRESENTATION_REPRESENTATION('',(#672),
#1139);
#1138=MECHANICAL_DESIGN_GEOMETRIC_PRESENTATION_REPRESENTATION('',(#673),
#1140);
#1139=(
GEOMETRIC_REPRESENTATION_CONTEXT(3)
GLOBAL_UNCERTAINTY_ASSIGNED_CONTEXT((#1141))
GLOBAL_UNIT_ASSIGNED_CONTEXT((#1147,#1145,#1143))
REPRESENTATION_CONTEXT('Part 2','TOP_LEVEL_ASSEMBLY_PART')
);
#1140=(
GEOMETRIC_REPRESENTATION_CONTEXT(3)
GLOBAL_UNCERTAINTY_ASSIGNED_CONTEXT((#1142))
GLOBAL_UNIT_ASSIGNED_CONTEXT((#1148,#1146,#1144))
REPRESENTATION_CONTEXT('Part 1','TOP_LEVEL_ASSEMBLY_PART')
);
#1141=UNCERTAINTY_MEASURE_WITH_UNIT(LENGTH_MEASURE(1.E-8),#1147,
'DISTANCE_ACCURACY_VALUE','Maximum Tolerance applied to model');
#1142=UNCERTAINTY_MEASURE_WITH_UNIT(LENGTH_MEASURE(1.E-8),#1148,
'DISTANCE_ACCURACY_VALUE','Maximum Tolerance applied to model');
#1143=(
NAMED_UNIT(*)
SI_UNIT($,.STERADIAN.)
SOLID_ANGLE_UNIT()
);
#1144=(
NAMED_UNIT(*)
SI_UNIT($,.STERADIAN.)
SOLID_ANGLE_UNIT()
);
#1145=(
NAMED_UNIT(*)
PLANE_ANGLE_UNIT()
SI_UNIT($,.RADIAN.)
);
#1146=(
NAMED_UNIT(*)
PLANE_ANGLE_UNIT()
SI_UNIT($,.RADIAN.)
);
#1147=(
LENGTH_UNIT()
NAMED_UNIT(*)
SI_UNIT($,.METRE.)
);
#1148=(
LENGTH_UNIT()
NAMED_UNIT(*)
SI_UNIT($,.METRE.)
);
#1149=PRODUCT_DEFINITION_SHAPE('','',#1151);
#1150=PRODUCT_DEFINITION_SHAPE('','',#1152);
#1151=PRODUCT_DEFINITION('','',#1155,#1153);
#1152=PRODUCT_DEFINITION('','',#1156,#1154);
#1153=PRODUCT_DEFINITION_CONTEXT('',#1167,'design');
#1154=PRODUCT_DEFINITION_CONTEXT('',#1168,'design');
#1155=PRODUCT_DEFINITION_FORMATION_WITH_SPECIFIED_SOURCE('','',#1159,
 .NOT_KNOWN.);
#1156=PRODUCT_DEFINITION_FORMATION_WITH_SPECIFIED_SOURCE('','',#1160,
 .NOT_KNOWN.);
#1157=PRODUCT_RELATED_PRODUCT_CATEGORY('','',(#1159));
#1158=PRODUCT_RELATED_PRODUCT_CATEGORY('','',(#1160));
#1159=PRODUCT('Part 2','Part 2','Part 2',(#1163));
#1160=PRODUCT('Part 1','Part 1','Part 1',(#1164));
#1161=PRODUCT_CATEGORY('','');
#1162=PRODUCT_CATEGORY('','');
#1163=PRODUCT_CONTEXT('',#1167,'mechanical');
#1164=PRODUCT_CONTEXT('',#1168,'mechanical');
#1165=APPLICATION_PROTOCOL_DEFINITION('international standard',
'ap242_managed_model_based_3d_engineering',2020,#1167);
#1166=APPLICATION_PROTOCOL_DEFINITION('international standard',
'ap242_managed_model_based_3d_engineering',2020,#1168);
#1167=APPLICATION_CONTEXT('managed model based 3d engineering');
#1168=APPLICATION_CONTEXT('managed model based 3d engineering');
ENDSEC;
END-ISO-10303-21;
