ISO-10303-21;
HEADER;
/* Generated by software containing ST-Developer
 * from STEP Tools, Inc. (www.steptools.com) 
 */
/* OPTION: using custom renumber hook */

FILE_DESCRIPTION(
/* description */ ('STEP AP242 Edition 2',
'CAx-IF Rec.Pracs.---Representation and Presentation of Product Manufa
cturing Information (PMI)---4.0---2014-10-13',
'CAx-IF Rec.Pracs.---3D Tessellated Geometry---0.4---2014-09-14','2;1',
'CAx-IF Rec.Pracs.---User Defined Attributes---1.5---2016-08-15'),
/* implementation_level */ '2;1');

FILE_NAME(
/* name */ 'Bot Body',
/* time_stamp */ '2026-07-08T06:46:47Z',
/* author */ (''),
/* organization */ (''),
/* preprocessor_version */ 'ST-DEVELOPER v20',
/* originating_system */ 'ONSHAPE BY PTC INC, 1.217',
/* authorisation */ '  ');

FILE_SCHEMA (('AP242_MANAGED_MODEL_BASED_3D_ENGINEERING_MIM_LF { 1 0 10303 442 3 1 4 }'));
ENDSEC;

DATA;
#10=SHAPE_REPRESENTATION_RELATIONSHIP('','',#565,#11);
#11=ADVANCED_BREP_SHAPE_REPRESENTATION('',(#563),#925);
#12=ELLIPSE('',#594,0.0143684097937107,0.01016);
#13=ELLIPSE('',#598,0.0143684097937107,0.01016);
#14=CYLINDRICAL_SURFACE('',#570,0.004);
#15=CYLINDRICAL_SURFACE('',#573,0.004);
#16=CYLINDRICAL_SURFACE('',#576,0.004);
#17=CYLINDRICAL_SURFACE('',#579,0.004);
#18=CYLINDRICAL_SURFACE('',#592,0.01016);
#19=CYLINDRICAL_SURFACE('',#596,0.01016);
#20=CYLINDRICAL_SURFACE('',#608,0.01524);
#21=CYLINDRICAL_SURFACE('',#611,0.01524);
#22=CYLINDRICAL_SURFACE('',#614,0.01524);
#23=CYLINDRICAL_SURFACE('',#617,0.01524);
#24=LINE('',#781,#68);
#25=LINE('',#784,#69);
#26=LINE('',#786,#70);
#27=LINE('',#788,#71);
#28=LINE('',#790,#72);
#29=LINE('',#792,#73);
#30=LINE('',#794,#74);
#31=LINE('',#796,#75);
#32=LINE('',#818,#76);
#33=LINE('',#820,#77);
#34=LINE('',#822,#78);
#35=LINE('',#823,#79);
#36=LINE('',#826,#80);
#37=LINE('',#828,#81);
#38=LINE('',#830,#82);
#39=LINE('',#832,#83);
#40=LINE('',#834,#84);
#41=LINE('',#835,#85);
#42=LINE('',#837,#86);
#43=LINE('',#839,#87);
#44=LINE('',#841,#88);
#45=LINE('',#843,#89);
#46=LINE('',#845,#90);
#47=LINE('',#847,#91);
#48=LINE('',#849,#92);
#49=LINE('',#851,#93);
#50=LINE('',#853,#94);
#51=LINE('',#855,#95);
#52=LINE('',#857,#96);
#53=LINE('',#859,#97);
#54=LINE('',#861,#98);
#55=LINE('',#862,#99);
#56=LINE('',#875,#100);
#57=LINE('',#882,#101);
#58=LINE('',#884,#102);
#59=LINE('',#886,#103);
#60=LINE('',#888,#104);
#61=LINE('',#890,#105);
#62=LINE('',#892,#106);
#63=LINE('',#894,#107);
#64=LINE('',#896,#108);
#65=LINE('',#897,#109);
#66=LINE('',#920,#110);
#67=LINE('',#922,#111);
#68=VECTOR('',#629,1.);
#69=VECTOR('',#630,1.);
#70=VECTOR('',#631,1.);
#71=VECTOR('',#632,1.);
#72=VECTOR('',#633,1.);
#73=VECTOR('',#634,1.);
#74=VECTOR('',#635,1.);
#75=VECTOR('',#636,1.);
#76=VECTOR('',#663,1.);
#77=VECTOR('',#664,1.);
#78=VECTOR('',#665,1.);
#79=VECTOR('',#666,1.);
#80=VECTOR('',#667,1.);
#81=VECTOR('',#668,1.);
#82=VECTOR('',#669,1.);
#83=VECTOR('',#670,1.);
#84=VECTOR('',#671,1.);
#85=VECTOR('',#672,1.);
#86=VECTOR('',#673,1.);
#87=VECTOR('',#674,1.);
#88=VECTOR('',#677,1.);
#89=VECTOR('',#678,1.);
#90=VECTOR('',#679,1.);
#91=VECTOR('',#682,1.);
#92=VECTOR('',#683,1.);
#93=VECTOR('',#686,1.);
#94=VECTOR('',#687,1.);
#95=VECTOR('',#688,1.);
#96=VECTOR('',#691,1.);
#97=VECTOR('',#692,1.);
#98=VECTOR('',#695,1.);
#99=VECTOR('',#696,1.);
#100=VECTOR('',#713,1.);
#101=VECTOR('',#722,1.);
#102=VECTOR('',#725,1.);
#103=VECTOR('',#726,1.);
#104=VECTOR('',#729,1.);
#105=VECTOR('',#730,1.);
#106=VECTOR('',#733,1.);
#107=VECTOR('',#734,1.);
#108=VECTOR('',#735,1.);
#109=VECTOR('',#736,1.);
#110=VECTOR('',#769,1.);
#111=VECTOR('',#772,1.);
#112=ORIENTED_EDGE('',*,*,#244,.F.);
#113=ORIENTED_EDGE('',*,*,#245,.F.);
#114=ORIENTED_EDGE('',*,*,#246,.F.);
#115=ORIENTED_EDGE('',*,*,#247,.T.);
#116=ORIENTED_EDGE('',*,*,#248,.T.);
#117=ORIENTED_EDGE('',*,*,#249,.T.);
#118=ORIENTED_EDGE('',*,*,#250,.F.);
#119=ORIENTED_EDGE('',*,*,#251,.F.);
#120=ORIENTED_EDGE('',*,*,#252,.T.);
#121=ORIENTED_EDGE('',*,*,#253,.T.);
#122=ORIENTED_EDGE('',*,*,#254,.T.);
#123=ORIENTED_EDGE('',*,*,#255,.F.);
#124=ORIENTED_EDGE('',*,*,#256,.T.);
#125=ORIENTED_EDGE('',*,*,#257,.F.);
#126=ORIENTED_EDGE('',*,*,#258,.F.);
#127=ORIENTED_EDGE('',*,*,#259,.F.);
#128=ORIENTED_EDGE('',*,*,#260,.F.);
#129=ORIENTED_EDGE('',*,*,#261,.F.);
#130=ORIENTED_EDGE('',*,*,#249,.F.);
#131=ORIENTED_EDGE('',*,*,#262,.F.);
#132=ORIENTED_EDGE('',*,*,#263,.T.);
#133=ORIENTED_EDGE('',*,*,#264,.T.);
#134=ORIENTED_EDGE('',*,*,#265,.T.);
#135=ORIENTED_EDGE('',*,*,#266,.T.);
#136=ORIENTED_EDGE('',*,*,#267,.F.);
#137=ORIENTED_EDGE('',*,*,#268,.T.);
#138=ORIENTED_EDGE('',*,*,#269,.F.);
#139=ORIENTED_EDGE('',*,*,#270,.T.);
#140=ORIENTED_EDGE('',*,*,#271,.T.);
#141=ORIENTED_EDGE('',*,*,#253,.F.);
#142=ORIENTED_EDGE('',*,*,#272,.F.);
#143=ORIENTED_EDGE('',*,*,#273,.T.);
#144=ORIENTED_EDGE('',*,*,#270,.F.);
#145=ORIENTED_EDGE('',*,*,#274,.F.);
#146=ORIENTED_EDGE('',*,*,#275,.T.);
#147=ORIENTED_EDGE('',*,*,#276,.T.);
#148=ORIENTED_EDGE('',*,*,#260,.T.);
#149=ORIENTED_EDGE('',*,*,#258,.T.);
#150=ORIENTED_EDGE('',*,*,#269,.T.);
#151=ORIENTED_EDGE('',*,*,#277,.T.);
#152=ORIENTED_EDGE('',*,*,#278,.F.);
#153=ORIENTED_EDGE('',*,*,#274,.T.);
#154=ORIENTED_EDGE('',*,*,#267,.T.);
#155=ORIENTED_EDGE('',*,*,#279,.T.);
#156=ORIENTED_EDGE('',*,*,#280,.F.);
#157=ORIENTED_EDGE('',*,*,#281,.T.);
#158=ORIENTED_EDGE('',*,*,#256,.F.);
#159=ORIENTED_EDGE('',*,*,#254,.F.);
#160=ORIENTED_EDGE('',*,*,#282,.T.);
#161=ORIENTED_EDGE('',*,*,#283,.T.);
#162=ORIENTED_EDGE('',*,*,#265,.F.);
#163=ORIENTED_EDGE('',*,*,#276,.F.);
#164=ORIENTED_EDGE('',*,*,#280,.T.);
#165=ORIENTED_EDGE('',*,*,#284,.T.);
#166=ORIENTED_EDGE('',*,*,#282,.F.);
#167=ORIENTED_EDGE('',*,*,#275,.F.);
#168=ORIENTED_EDGE('',*,*,#278,.T.);
#169=ORIENTED_EDGE('',*,*,#285,.T.);
#170=ORIENTED_EDGE('',*,*,#286,.F.);
#171=ORIENTED_EDGE('',*,*,#284,.F.);
#172=ORIENTED_EDGE('',*,*,#279,.F.);
#173=ORIENTED_EDGE('',*,*,#266,.F.);
#174=ORIENTED_EDGE('',*,*,#283,.F.);
#175=ORIENTED_EDGE('',*,*,#287,.F.);
#176=ORIENTED_EDGE('',*,*,#285,.F.);
#177=ORIENTED_EDGE('',*,*,#277,.F.);
#178=ORIENTED_EDGE('',*,*,#268,.F.);
#179=ORIENTED_EDGE('',*,*,#281,.F.);
#180=ORIENTED_EDGE('',*,*,#288,.F.);
#181=ORIENTED_EDGE('',*,*,#289,.T.);
#182=ORIENTED_EDGE('',*,*,#287,.T.);
#183=ORIENTED_EDGE('',*,*,#290,.F.);
#184=ORIENTED_EDGE('',*,*,#288,.T.);
#185=ORIENTED_EDGE('',*,*,#291,.F.);
#186=ORIENTED_EDGE('',*,*,#292,.T.);
#187=ORIENTED_EDGE('',*,*,#286,.T.);
#188=ORIENTED_EDGE('',*,*,#293,.F.);
#189=ORIENTED_EDGE('',*,*,#291,.T.);
#190=ORIENTED_EDGE('',*,*,#272,.T.);
#191=ORIENTED_EDGE('',*,*,#252,.F.);
#192=ORIENTED_EDGE('',*,*,#294,.F.);
#193=ORIENTED_EDGE('',*,*,#295,.T.);
#194=ORIENTED_EDGE('',*,*,#293,.T.);
#195=ORIENTED_EDGE('',*,*,#292,.F.);
#196=ORIENTED_EDGE('',*,*,#290,.T.);
#197=ORIENTED_EDGE('',*,*,#289,.F.);
#198=ORIENTED_EDGE('',*,*,#264,.F.);
#199=ORIENTED_EDGE('',*,*,#296,.F.);
#200=ORIENTED_EDGE('',*,*,#297,.T.);
#201=ORIENTED_EDGE('',*,*,#250,.T.);
#202=ORIENTED_EDGE('',*,*,#298,.F.);
#203=ORIENTED_EDGE('',*,*,#299,.F.);
#204=ORIENTED_EDGE('',*,*,#300,.T.);
#205=ORIENTED_EDGE('',*,*,#273,.F.);
#206=ORIENTED_EDGE('',*,*,#295,.F.);
#207=ORIENTED_EDGE('',*,*,#301,.T.);
#208=ORIENTED_EDGE('',*,*,#296,.T.);
#209=ORIENTED_EDGE('',*,*,#263,.F.);
#210=ORIENTED_EDGE('',*,*,#302,.F.);
#211=ORIENTED_EDGE('',*,*,#303,.F.);
#212=ORIENTED_EDGE('',*,*,#297,.F.);
#213=ORIENTED_EDGE('',*,*,#301,.F.);
#214=ORIENTED_EDGE('',*,*,#294,.T.);
#215=ORIENTED_EDGE('',*,*,#251,.T.);
#216=ORIENTED_EDGE('',*,*,#304,.T.);
#217=ORIENTED_EDGE('',*,*,#261,.T.);
#218=ORIENTED_EDGE('',*,*,#304,.F.);
#219=ORIENTED_EDGE('',*,*,#245,.T.);
#220=ORIENTED_EDGE('',*,*,#305,.T.);
#221=ORIENTED_EDGE('',*,*,#259,.T.);
#222=ORIENTED_EDGE('',*,*,#305,.F.);
#223=ORIENTED_EDGE('',*,*,#244,.T.);
#224=ORIENTED_EDGE('',*,*,#306,.T.);
#225=ORIENTED_EDGE('',*,*,#257,.T.);
#226=ORIENTED_EDGE('',*,*,#306,.F.);
#227=ORIENTED_EDGE('',*,*,#302,.T.);
#228=ORIENTED_EDGE('',*,*,#307,.T.);
#229=ORIENTED_EDGE('',*,*,#255,.T.);
#230=ORIENTED_EDGE('',*,*,#307,.F.);
#231=ORIENTED_EDGE('',*,*,#303,.T.);
#232=ORIENTED_EDGE('',*,*,#271,.F.);
#233=ORIENTED_EDGE('',*,*,#300,.F.);
#234=ORIENTED_EDGE('',*,*,#308,.T.);
#235=ORIENTED_EDGE('',*,*,#246,.T.);
#236=ORIENTED_EDGE('',*,*,#262,.T.);
#237=ORIENTED_EDGE('',*,*,#248,.F.);
#238=ORIENTED_EDGE('',*,*,#309,.F.);
#239=ORIENTED_EDGE('',*,*,#298,.T.);
#240=ORIENTED_EDGE('',*,*,#299,.T.);
#241=ORIENTED_EDGE('',*,*,#309,.T.);
#242=ORIENTED_EDGE('',*,*,#247,.F.);
#243=ORIENTED_EDGE('',*,*,#308,.F.);
#244=EDGE_CURVE('',#310,#310,#360,.T.);
#245=EDGE_CURVE('',#311,#311,#361,.T.);
#246=EDGE_CURVE('',#312,#313,#24,.T.);
#247=EDGE_CURVE('',#312,#314,#25,.T.);
#248=EDGE_CURVE('',#314,#315,#26,.T.);
#249=EDGE_CURVE('',#315,#316,#27,.T.);
#250=EDGE_CURVE('',#317,#316,#28,.T.);
#251=EDGE_CURVE('',#318,#317,#29,.T.);
#252=EDGE_CURVE('',#318,#319,#30,.T.);
#253=EDGE_CURVE('',#319,#313,#31,.T.);
#254=EDGE_CURVE('',#320,#320,#362,.T.);
#255=EDGE_CURVE('',#321,#321,#363,.F.);
#256=EDGE_CURVE('',#322,#322,#364,.T.);
#257=EDGE_CURVE('',#323,#323,#365,.F.);
#258=EDGE_CURVE('',#324,#324,#366,.T.);
#259=EDGE_CURVE('',#325,#325,#367,.F.);
#260=EDGE_CURVE('',#326,#326,#368,.T.);
#261=EDGE_CURVE('',#327,#327,#369,.F.);
#262=EDGE_CURVE('',#328,#315,#32,.T.);
#263=EDGE_CURVE('',#328,#329,#33,.T.);
#264=EDGE_CURVE('',#329,#316,#34,.T.);
#265=EDGE_CURVE('',#330,#331,#35,.T.);
#266=EDGE_CURVE('',#331,#332,#36,.T.);
#267=EDGE_CURVE('',#333,#332,#37,.T.);
#268=EDGE_CURVE('',#333,#334,#38,.F.);
#269=EDGE_CURVE('',#335,#334,#39,.T.);
#270=EDGE_CURVE('',#335,#330,#40,.T.);
#271=EDGE_CURVE('',#336,#313,#41,.T.);
#272=EDGE_CURVE('',#337,#319,#42,.T.);
#273=EDGE_CURVE('',#337,#336,#43,.T.);
#274=EDGE_CURVE('',#338,#335,#44,.T.);
#275=EDGE_CURVE('',#338,#339,#45,.T.);
#276=EDGE_CURVE('',#339,#330,#46,.T.);
#277=EDGE_CURVE('',#334,#340,#47,.T.);
#278=EDGE_CURVE('',#338,#340,#48,.T.);
#279=EDGE_CURVE('',#332,#341,#49,.T.);
#280=EDGE_CURVE('',#342,#341,#50,.T.);
#281=EDGE_CURVE('',#342,#333,#51,.T.);
#282=EDGE_CURVE('',#339,#343,#52,.T.);
#283=EDGE_CURVE('',#343,#331,#53,.T.);
#284=EDGE_CURVE('',#341,#343,#54,.T.);
#285=EDGE_CURVE('',#340,#342,#55,.F.);
#286=EDGE_CURVE('',#344,#344,#370,.T.);
#287=EDGE_CURVE('',#345,#345,#371,.T.);
#288=EDGE_CURVE('',#346,#347,#372,.T.);
#289=EDGE_CURVE('',#346,#347,#12,.F.);
#290=EDGE_CURVE('',#346,#347,#56,.T.);
#291=EDGE_CURVE('',#348,#349,#373,.T.);
#292=EDGE_CURVE('',#348,#349,#13,.F.);
#293=EDGE_CURVE('',#348,#349,#57,.T.);
#294=EDGE_CURVE('',#350,#318,#58,.T.);
#295=EDGE_CURVE('',#350,#337,#59,.T.);
#296=EDGE_CURVE('',#351,#329,#60,.T.);
#297=EDGE_CURVE('',#351,#317,#61,.T.);
#298=EDGE_CURVE('',#352,#328,#62,.T.);
#299=EDGE_CURVE('',#353,#352,#63,.T.);
#300=EDGE_CURVE('',#353,#336,#64,.T.);
#301=EDGE_CURVE('',#350,#351,#65,.T.);
#302=EDGE_CURVE('',#354,#354,#374,.T.);
#303=EDGE_CURVE('',#355,#355,#375,.T.);
#304=EDGE_CURVE('',#356,#356,#376,.T.);
#305=EDGE_CURVE('',#357,#357,#377,.T.);
#306=EDGE_CURVE('',#358,#358,#378,.T.);
#307=EDGE_CURVE('',#359,#359,#379,.T.);
#308=EDGE_CURVE('',#353,#312,#66,.T.);
#309=EDGE_CURVE('',#352,#314,#67,.T.);
#310=VERTEX_POINT('',#778);
#311=VERTEX_POINT('',#780);
#312=VERTEX_POINT('',#782);
#313=VERTEX_POINT('',#783);
#314=VERTEX_POINT('',#785);
#315=VERTEX_POINT('',#787);
#316=VERTEX_POINT('',#789);
#317=VERTEX_POINT('',#791);
#318=VERTEX_POINT('',#793);
#319=VERTEX_POINT('',#795);
#320=VERTEX_POINT('',#799);
#321=VERTEX_POINT('',#801);
#322=VERTEX_POINT('',#804);
#323=VERTEX_POINT('',#806);
#324=VERTEX_POINT('',#809);
#325=VERTEX_POINT('',#811);
#326=VERTEX_POINT('',#814);
#327=VERTEX_POINT('',#816);
#328=VERTEX_POINT('',#819);
#329=VERTEX_POINT('',#821);
#330=VERTEX_POINT('',#824);
#331=VERTEX_POINT('',#825);
#332=VERTEX_POINT('',#827);
#333=VERTEX_POINT('',#829);
#334=VERTEX_POINT('',#831);
#335=VERTEX_POINT('',#833);
#336=VERTEX_POINT('',#836);
#337=VERTEX_POINT('',#838);
#338=VERTEX_POINT('',#842);
#339=VERTEX_POINT('',#844);
#340=VERTEX_POINT('',#848);
#341=VERTEX_POINT('',#852);
#342=VERTEX_POINT('',#854);
#343=VERTEX_POINT('',#858);
#344=VERTEX_POINT('',#865);
#345=VERTEX_POINT('',#868);
#346=VERTEX_POINT('',#871);
#347=VERTEX_POINT('',#872);
#348=VERTEX_POINT('',#878);
#349=VERTEX_POINT('',#879);
#350=VERTEX_POINT('',#885);
#351=VERTEX_POINT('',#889);
#352=VERTEX_POINT('',#893);
#353=VERTEX_POINT('',#895);
#354=VERTEX_POINT('',#899);
#355=VERTEX_POINT('',#901);
#356=VERTEX_POINT('',#905);
#357=VERTEX_POINT('',#909);
#358=VERTEX_POINT('',#913);
#359=VERTEX_POINT('',#917);
#360=CIRCLE('',#568,0.01524);
#361=CIRCLE('',#569,0.01524);
#362=CIRCLE('',#571,0.004);
#363=CIRCLE('',#572,0.004);
#364=CIRCLE('',#574,0.004);
#365=CIRCLE('',#575,0.004);
#366=CIRCLE('',#577,0.004);
#367=CIRCLE('',#578,0.004);
#368=CIRCLE('',#580,0.004);
#369=CIRCLE('',#581,0.004);
#370=CIRCLE('',#589,0.01016);
#371=CIRCLE('',#591,0.01016);
#372=CIRCLE('',#593,0.01016);
#373=CIRCLE('',#597,0.01016);
#374=CIRCLE('',#603,0.01524);
#375=CIRCLE('',#604,0.01524);
#376=CIRCLE('',#607,0.01524);
#377=CIRCLE('',#610,0.01524);
#378=CIRCLE('',#613,0.01524);
#379=CIRCLE('',#616,0.01524);
#380=EDGE_LOOP('',(#112));
#381=EDGE_LOOP('',(#113));
#382=EDGE_LOOP('',(#114,#115,#116,#117,#118,#119,#120,#121));
#383=EDGE_LOOP('',(#122));
#384=EDGE_LOOP('',(#123));
#385=EDGE_LOOP('',(#124));
#386=EDGE_LOOP('',(#125));
#387=EDGE_LOOP('',(#126));
#388=EDGE_LOOP('',(#127));
#389=EDGE_LOOP('',(#128));
#390=EDGE_LOOP('',(#129));
#391=EDGE_LOOP('',(#130,#131,#132,#133));
#392=EDGE_LOOP('',(#134,#135,#136,#137,#138,#139));
#393=EDGE_LOOP('',(#140,#141,#142,#143));
#394=EDGE_LOOP('',(#144,#145,#146,#147));
#395=EDGE_LOOP('',(#148));
#396=EDGE_LOOP('',(#149));
#397=EDGE_LOOP('',(#150,#151,#152,#153));
#398=EDGE_LOOP('',(#154,#155,#156,#157));
#399=EDGE_LOOP('',(#158));
#400=EDGE_LOOP('',(#159));
#401=EDGE_LOOP('',(#160,#161,#162,#163));
#402=EDGE_LOOP('',(#164,#165,#166,#167,#168,#169));
#403=EDGE_LOOP('',(#170));
#404=EDGE_LOOP('',(#171,#172,#173,#174));
#405=EDGE_LOOP('',(#175));
#406=EDGE_LOOP('',(#176,#177,#178,#179));
#407=EDGE_LOOP('',(#180,#181));
#408=EDGE_LOOP('',(#182));
#409=EDGE_LOOP('',(#183,#184));
#410=EDGE_LOOP('',(#185,#186));
#411=EDGE_LOOP('',(#187));
#412=EDGE_LOOP('',(#188,#189));
#413=EDGE_LOOP('',(#190,#191,#192,#193));
#414=EDGE_LOOP('',(#194,#195));
#415=EDGE_LOOP('',(#196,#197));
#416=EDGE_LOOP('',(#198,#199,#200,#201));
#417=EDGE_LOOP('',(#202,#203,#204,#205,#206,#207,#208,#209));
#418=EDGE_LOOP('',(#210));
#419=EDGE_LOOP('',(#211));
#420=EDGE_LOOP('',(#212,#213,#214,#215));
#421=EDGE_LOOP('',(#216));
#422=EDGE_LOOP('',(#217));
#423=EDGE_LOOP('',(#218));
#424=EDGE_LOOP('',(#219));
#425=EDGE_LOOP('',(#220));
#426=EDGE_LOOP('',(#221));
#427=EDGE_LOOP('',(#222));
#428=EDGE_LOOP('',(#223));
#429=EDGE_LOOP('',(#224));
#430=EDGE_LOOP('',(#225));
#431=EDGE_LOOP('',(#226));
#432=EDGE_LOOP('',(#227));
#433=EDGE_LOOP('',(#228));
#434=EDGE_LOOP('',(#229));
#435=EDGE_LOOP('',(#230));
#436=EDGE_LOOP('',(#231));
#437=EDGE_LOOP('',(#232,#233,#234,#235));
#438=EDGE_LOOP('',(#236,#237,#238,#239));
#439=EDGE_LOOP('',(#240,#241,#242,#243));
#440=FACE_BOUND('',#380,.T.);
#441=FACE_BOUND('',#381,.T.);
#442=FACE_BOUND('',#382,.T.);
#443=FACE_BOUND('',#383,.T.);
#444=FACE_BOUND('',#384,.T.);
#445=FACE_BOUND('',#385,.T.);
#446=FACE_BOUND('',#386,.T.);
#447=FACE_BOUND('',#387,.T.);
#448=FACE_BOUND('',#388,.T.);
#449=FACE_BOUND('',#389,.T.);
#450=FACE_BOUND('',#390,.T.);
#451=FACE_BOUND('',#391,.T.);
#452=FACE_BOUND('',#392,.T.);
#453=FACE_BOUND('',#393,.T.);
#454=FACE_BOUND('',#394,.T.);
#455=FACE_BOUND('',#395,.T.);
#456=FACE_BOUND('',#396,.T.);
#457=FACE_BOUND('',#397,.T.);
#458=FACE_BOUND('',#398,.T.);
#459=FACE_BOUND('',#399,.T.);
#460=FACE_BOUND('',#400,.T.);
#461=FACE_BOUND('',#401,.T.);
#462=FACE_BOUND('',#402,.T.);
#463=FACE_BOUND('',#403,.T.);
#464=FACE_BOUND('',#404,.T.);
#465=FACE_BOUND('',#405,.T.);
#466=FACE_BOUND('',#406,.T.);
#467=FACE_BOUND('',#407,.T.);
#468=FACE_BOUND('',#408,.T.);
#469=FACE_BOUND('',#409,.T.);
#470=FACE_BOUND('',#410,.T.);
#471=FACE_BOUND('',#411,.T.);
#472=FACE_BOUND('',#412,.T.);
#473=FACE_BOUND('',#413,.T.);
#474=FACE_BOUND('',#414,.T.);
#475=FACE_BOUND('',#415,.T.);
#476=FACE_BOUND('',#416,.T.);
#477=FACE_BOUND('',#417,.T.);
#478=FACE_BOUND('',#418,.T.);
#479=FACE_BOUND('',#419,.T.);
#480=FACE_BOUND('',#420,.T.);
#481=FACE_BOUND('',#421,.T.);
#482=FACE_BOUND('',#422,.T.);
#483=FACE_BOUND('',#423,.T.);
#484=FACE_BOUND('',#424,.T.);
#485=FACE_BOUND('',#425,.T.);
#486=FACE_BOUND('',#426,.T.);
#487=FACE_BOUND('',#427,.T.);
#488=FACE_BOUND('',#428,.T.);
#489=FACE_BOUND('',#429,.T.);
#490=FACE_BOUND('',#430,.T.);
#491=FACE_BOUND('',#431,.T.);
#492=FACE_BOUND('',#432,.T.);
#493=FACE_BOUND('',#433,.T.);
#494=FACE_BOUND('',#434,.T.);
#495=FACE_BOUND('',#435,.T.);
#496=FACE_BOUND('',#436,.T.);
#497=FACE_BOUND('',#437,.T.);
#498=FACE_BOUND('',#438,.T.);
#499=FACE_BOUND('',#439,.T.);
#500=PLANE('',#567);
#501=PLANE('',#582);
#502=PLANE('',#583);
#503=PLANE('',#584);
#504=PLANE('',#585);
#505=PLANE('',#586);
#506=PLANE('',#587);
#507=PLANE('',#588);
#508=PLANE('',#590);
#509=PLANE('',#595);
#510=PLANE('',#599);
#511=PLANE('',#600);
#512=PLANE('',#601);
#513=PLANE('',#602);
#514=PLANE('',#605);
#515=PLANE('',#606);
#516=PLANE('',#609);
#517=PLANE('',#612);
#518=PLANE('',#615);
#519=PLANE('',#618);
#520=PLANE('',#619);
#521=PLANE('',#620);
#522=ADVANCED_FACE('',(#440,#441,#442),#500,.F.);
#523=ADVANCED_FACE('',(#443,#444),#14,.F.);
#524=ADVANCED_FACE('',(#445,#446),#15,.F.);
#525=ADVANCED_FACE('',(#447,#448),#16,.F.);
#526=ADVANCED_FACE('',(#449,#450),#17,.F.);
#527=ADVANCED_FACE('',(#451,#452,#453),#501,.F.);
#528=ADVANCED_FACE('',(#454),#502,.T.);
#529=ADVANCED_FACE('',(#455,#456,#457),#503,.F.);
#530=ADVANCED_FACE('',(#458),#504,.F.);
#531=ADVANCED_FACE('',(#459,#460,#461),#505,.T.);
#532=ADVANCED_FACE('',(#462),#506,.T.);
#533=ADVANCED_FACE('',(#463,#464),#507,.T.);
#534=ADVANCED_FACE('',(#465,#466),#508,.F.);
#535=ADVANCED_FACE('',(#467,#468),#18,.F.);
#536=ADVANCED_FACE('',(#469),#509,.T.);
#537=ADVANCED_FACE('',(#470,#471),#19,.F.);
#538=ADVANCED_FACE('',(#472),#510,.T.);
#539=ADVANCED_FACE('',(#473,#474,#475),#511,.F.);
#540=ADVANCED_FACE('',(#476),#512,.T.);
#541=ADVANCED_FACE('',(#477,#478,#479),#513,.T.);
#542=ADVANCED_FACE('',(#480),#514,.T.);
#543=ADVANCED_FACE('',(#481,#482),#515,.T.);
#544=ADVANCED_FACE('',(#483,#484),#20,.F.);
#545=ADVANCED_FACE('',(#485,#486),#516,.T.);
#546=ADVANCED_FACE('',(#487,#488),#21,.F.);
#547=ADVANCED_FACE('',(#489,#490),#517,.T.);
#548=ADVANCED_FACE('',(#491,#492),#22,.F.);
#549=ADVANCED_FACE('',(#493,#494),#518,.T.);
#550=ADVANCED_FACE('',(#495,#496),#23,.F.);
#551=ADVANCED_FACE('',(#497),#519,.T.);
#552=ADVANCED_FACE('',(#498),#520,.F.);
#553=ADVANCED_FACE('',(#499),#521,.F.);
#554=CLOSED_SHELL('',(#522,#523,#524,#525,#526,#527,#528,#529,#530,#531,
#532,#533,#534,#535,#536,#537,#538,#539,#540,#541,#542,#543,#544,#545,#546,
#547,#548,#549,#550,#551,#552,#553));
#555=STYLED_ITEM('',(#556),#563);
#556=PRESENTATION_STYLE_ASSIGNMENT((#557));
#557=SURFACE_STYLE_USAGE(.BOTH.,#558);
#558=SURFACE_SIDE_STYLE('',(#559));
#559=SURFACE_STYLE_FILL_AREA(#560);
#560=FILL_AREA_STYLE('',(#561));
#561=FILL_AREA_STYLE_COLOUR('',#562);
#562=COLOUR_RGB('',0.615686274509804,0.811764705882353,0.929411764705882);
#563=MANIFOLD_SOLID_BREP('Part 1',#554);
#564=SHAPE_DEFINITION_REPRESENTATION(#930,#565);
#565=SHAPE_REPRESENTATION('Part 1',(#566),#925);
#566=AXIS2_PLACEMENT_3D('',#775,#621,#622);
#567=AXIS2_PLACEMENT_3D('',#776,#623,#624);
#568=AXIS2_PLACEMENT_3D('',#777,#625,#626);
#569=AXIS2_PLACEMENT_3D('',#779,#627,#628);
#570=AXIS2_PLACEMENT_3D('',#797,#637,#638);
#571=AXIS2_PLACEMENT_3D('',#798,#639,#640);
#572=AXIS2_PLACEMENT_3D('',#800,#641,#642);
#573=AXIS2_PLACEMENT_3D('',#802,#643,#644);
#574=AXIS2_PLACEMENT_3D('',#803,#645,#646);
#575=AXIS2_PLACEMENT_3D('',#805,#647,#648);
#576=AXIS2_PLACEMENT_3D('',#807,#649,#650);
#577=AXIS2_PLACEMENT_3D('',#808,#651,#652);
#578=AXIS2_PLACEMENT_3D('',#810,#653,#654);
#579=AXIS2_PLACEMENT_3D('',#812,#655,#656);
#580=AXIS2_PLACEMENT_3D('',#813,#657,#658);
#581=AXIS2_PLACEMENT_3D('',#815,#659,#660);
#582=AXIS2_PLACEMENT_3D('',#817,#661,#662);
#583=AXIS2_PLACEMENT_3D('',#840,#675,#676);
#584=AXIS2_PLACEMENT_3D('',#846,#680,#681);
#585=AXIS2_PLACEMENT_3D('',#850,#684,#685);
#586=AXIS2_PLACEMENT_3D('',#856,#689,#690);
#587=AXIS2_PLACEMENT_3D('',#860,#693,#694);
#588=AXIS2_PLACEMENT_3D('',#863,#697,#698);
#589=AXIS2_PLACEMENT_3D('',#864,#699,#700);
#590=AXIS2_PLACEMENT_3D('',#866,#701,#702);
#591=AXIS2_PLACEMENT_3D('',#867,#703,#704);
#592=AXIS2_PLACEMENT_3D('',#869,#705,#706);
#593=AXIS2_PLACEMENT_3D('',#870,#707,#708);
#594=AXIS2_PLACEMENT_3D('',#873,#709,#710);
#595=AXIS2_PLACEMENT_3D('',#874,#711,#712);
#596=AXIS2_PLACEMENT_3D('',#876,#714,#715);
#597=AXIS2_PLACEMENT_3D('',#877,#716,#717);
#598=AXIS2_PLACEMENT_3D('',#880,#718,#719);
#599=AXIS2_PLACEMENT_3D('',#881,#720,#721);
#600=AXIS2_PLACEMENT_3D('',#883,#723,#724);
#601=AXIS2_PLACEMENT_3D('',#887,#727,#728);
#602=AXIS2_PLACEMENT_3D('',#891,#731,#732);
#603=AXIS2_PLACEMENT_3D('',#898,#737,#738);
#604=AXIS2_PLACEMENT_3D('',#900,#739,#740);
#605=AXIS2_PLACEMENT_3D('',#902,#741,#742);
#606=AXIS2_PLACEMENT_3D('',#903,#743,#744);
#607=AXIS2_PLACEMENT_3D('',#904,#745,#746);
#608=AXIS2_PLACEMENT_3D('',#906,#747,#748);
#609=AXIS2_PLACEMENT_3D('',#907,#749,#750);
#610=AXIS2_PLACEMENT_3D('',#908,#751,#752);
#611=AXIS2_PLACEMENT_3D('',#910,#753,#754);
#612=AXIS2_PLACEMENT_3D('',#911,#755,#756);
#613=AXIS2_PLACEMENT_3D('',#912,#757,#758);
#614=AXIS2_PLACEMENT_3D('',#914,#759,#760);
#615=AXIS2_PLACEMENT_3D('',#915,#761,#762);
#616=AXIS2_PLACEMENT_3D('',#916,#763,#764);
#617=AXIS2_PLACEMENT_3D('',#918,#765,#766);
#618=AXIS2_PLACEMENT_3D('',#919,#767,#768);
#619=AXIS2_PLACEMENT_3D('',#921,#770,#771);
#620=AXIS2_PLACEMENT_3D('',#923,#773,#774);
#621=DIRECTION('',(0.,0.,1.));
#622=DIRECTION('',(1.,0.,0.));
#623=DIRECTION('',(0.,1.,0.));
#624=DIRECTION('',(0.,0.,1.));
#625=DIRECTION('',(0.,-1.,0.));
#626=DIRECTION('',(0.,0.,-1.));
#627=DIRECTION('',(0.,-1.,0.));
#628=DIRECTION('',(0.,0.,-1.));
#629=DIRECTION('',(0.,0.,-1.));
#630=DIRECTION('',(1.,0.,0.));
#631=DIRECTION('',(0.,0.,-1.));
#632=DIRECTION('',(1.,0.,0.));
#633=DIRECTION('',(0.,0.,-1.));
#634=DIRECTION('',(1.,0.,0.));
#635=DIRECTION('',(0.,0.,-1.));
#636=DIRECTION('',(1.,0.,0.));
#637=DIRECTION('',(0.,-1.,0.));
#638=DIRECTION('',(0.,0.,-1.));
#639=DIRECTION('',(0.,-1.,0.));
#640=DIRECTION('',(0.,0.,-1.));
#641=DIRECTION('',(0.,1.,0.));
#642=DIRECTION('',(0.,0.,1.));
#643=DIRECTION('',(0.,-1.,0.));
#644=DIRECTION('',(0.,0.,-1.));
#645=DIRECTION('',(0.,-1.,0.));
#646=DIRECTION('',(0.,0.,-1.));
#647=DIRECTION('',(0.,1.,0.));
#648=DIRECTION('',(0.,0.,1.));
#649=DIRECTION('',(0.,-1.,0.));
#650=DIRECTION('',(0.,0.,-1.));
#651=DIRECTION('',(0.,-1.,0.));
#652=DIRECTION('',(0.,0.,-1.));
#653=DIRECTION('',(0.,-1.,0.));
#654=DIRECTION('',(0.,0.,-1.));
#655=DIRECTION('',(0.,-1.,0.));
#656=DIRECTION('',(0.,0.,-1.));
#657=DIRECTION('',(0.,-1.,0.));
#658=DIRECTION('',(0.,0.,-1.));
#659=DIRECTION('',(0.,-1.,0.));
#660=DIRECTION('',(0.,0.,-1.));
#661=DIRECTION('',(0.,0.,1.));
#662=DIRECTION('',(1.,0.,0.));
#663=DIRECTION('',(-3.51237599185405E-16,1.,0.));
#664=DIRECTION('',(1.,0.,0.));
#665=DIRECTION('',(0.,1.,0.));
#666=DIRECTION('',(-1.,0.,0.));
#667=DIRECTION('',(-0.707106781186548,0.707106781186547,0.));
#668=DIRECTION('',(-2.73184799366426E-16,-1.,0.));
#669=DIRECTION('',(-0.707106781186548,-0.707106781186547,0.));
#670=DIRECTION('',(-1.,0.,0.));
#671=DIRECTION('',(-2.73184799366426E-16,-1.,0.));
#672=DIRECTION('',(-3.51237599185405E-16,1.,0.));
#673=DIRECTION('',(0.,1.,0.));
#674=DIRECTION('',(1.,0.,0.));
#675=DIRECTION('',(1.,-2.73184799366426E-16,0.));
#676=DIRECTION('',(2.73184799366426E-16,1.,0.));
#677=DIRECTION('',(0.,0.,-1.));
#678=DIRECTION('',(-2.73184799366426E-16,-1.,0.));
#679=DIRECTION('',(0.,0.,-1.));
#680=DIRECTION('',(0.,-1.,0.));
#681=DIRECTION('',(0.,0.,-1.));
#682=DIRECTION('',(0.,0.,1.));
#683=DIRECTION('',(-1.,0.,0.));
#684=DIRECTION('',(1.,-2.73184799366426E-16,0.));
#685=DIRECTION('',(2.73184799366426E-16,1.,0.));
#686=DIRECTION('',(0.,0.,1.));
#687=DIRECTION('',(-2.73184799366426E-16,-1.,0.));
#688=DIRECTION('',(0.,0.,-1.));
#689=DIRECTION('',(0.,-1.,0.));
#690=DIRECTION('',(0.,0.,-1.));
#691=DIRECTION('',(-1.,0.,0.));
#692=DIRECTION('',(0.,0.,-1.));
#693=DIRECTION('',(0.,0.,1.));
#694=DIRECTION('',(1.,0.,0.));
#695=DIRECTION('',(0.707106781186548,-0.707106781186547,0.));
#696=DIRECTION('',(0.707106781186548,0.707106781186547,0.));
#697=DIRECTION('',(-0.707106781186547,-0.707106781186548,0.));
#698=DIRECTION('',(0.,0.,1.));
#699=DIRECTION('',(-0.707106781186547,-0.707106781186548,0.));
#700=DIRECTION('',(0.707106781186548,-0.707106781186547,0.));
#701=DIRECTION('',(0.707106781186547,-0.707106781186548,0.));
#702=DIRECTION('',(0.,0.,-1.));
#703=DIRECTION('',(-0.707106781186547,0.707106781186548,0.));
#704=DIRECTION('',(-0.707106781186548,-0.707106781186547,0.));
#705=DIRECTION('',(-0.707106781186547,0.707106781186548,0.));
#706=DIRECTION('',(-0.707106781186548,-0.707106781186547,0.));
#707=DIRECTION('',(-0.707106781186547,0.707106781186548,0.));
#708=DIRECTION('',(-0.707106781186548,-0.707106781186547,0.));
#709=DIRECTION('',(-1.,0.,0.));
#710=DIRECTION('',(0.,1.,0.));
#711=DIRECTION('',(-0.707106781186547,0.707106781186548,0.));
#712=DIRECTION('',(-0.707106781186548,-0.707106781186547,0.));
#713=DIRECTION('',(0.,0.,1.));
#714=DIRECTION('',(-0.707106781186547,-0.707106781186548,0.));
#715=DIRECTION('',(0.707106781186548,-0.707106781186547,0.));
#716=DIRECTION('',(-0.707106781186547,-0.707106781186548,0.));
#717=DIRECTION('',(0.707106781186548,-0.707106781186547,0.));
#718=DIRECTION('',(-1.,0.,0.));
#719=DIRECTION('',(0.,-1.,0.));
#720=DIRECTION('',(-0.707106781186547,-0.707106781186548,0.));
#721=DIRECTION('',(0.707106781186548,-0.707106781186547,0.));
#722=DIRECTION('',(0.,0.,-1.));
#723=DIRECTION('',(-1.,0.,0.));
#724=DIRECTION('',(0.,0.,1.));
#725=DIRECTION('',(0.,1.,0.));
#726=DIRECTION('',(0.,0.,-1.));
#727=DIRECTION('',(-1.,0.,0.));
#728=DIRECTION('',(0.,0.,1.));
#729=DIRECTION('',(0.,0.,-1.));
#730=DIRECTION('',(0.,1.,0.));
#731=DIRECTION('',(0.,1.,0.));
#732=DIRECTION('',(0.,0.,1.));
#733=DIRECTION('',(0.,0.,-1.));
#734=DIRECTION('',(1.,0.,0.));
#735=DIRECTION('',(0.,0.,-1.));
#736=DIRECTION('',(1.,0.,0.));
#737=DIRECTION('',(0.,1.,0.));
#738=DIRECTION('',(0.,0.,1.));
#739=DIRECTION('',(0.,1.,0.));
#740=DIRECTION('',(0.,0.,1.));
#741=DIRECTION('',(0.,0.,-1.));
#742=DIRECTION('',(1.,0.,0.));
#743=DIRECTION('',(0.,-1.,0.));
#744=DIRECTION('',(1.,0.,0.));
#745=DIRECTION('',(0.,-1.,0.));
#746=DIRECTION('',(0.,0.,-1.));
#747=DIRECTION('',(0.,-1.,0.));
#748=DIRECTION('',(0.,0.,-1.));
#749=DIRECTION('',(0.,-1.,0.));
#750=DIRECTION('',(1.,0.,0.));
#751=DIRECTION('',(0.,-1.,0.));
#752=DIRECTION('',(0.,0.,-1.));
#753=DIRECTION('',(0.,-1.,0.));
#754=DIRECTION('',(0.,0.,-1.));
#755=DIRECTION('',(0.,1.,0.));
#756=DIRECTION('',(-1.,0.,0.));
#757=DIRECTION('',(0.,1.,0.));
#758=DIRECTION('',(0.,0.,1.));
#759=DIRECTION('',(0.,1.,0.));
#760=DIRECTION('',(0.,0.,1.));
#761=DIRECTION('',(0.,1.,0.));
#762=DIRECTION('',(-1.,0.,0.));
#763=DIRECTION('',(0.,1.,0.));
#764=DIRECTION('',(0.,0.,1.));
#765=DIRECTION('',(0.,1.,0.));
#766=DIRECTION('',(0.,0.,1.));
#767=DIRECTION('',(-1.,-3.51237599185405E-16,0.));
#768=DIRECTION('',(3.51237599185405E-16,-1.,0.));
#769=DIRECTION('',(-3.51237599185405E-16,1.,0.));
#770=DIRECTION('',(-1.,-3.51237599185405E-16,0.));
#771=DIRECTION('',(3.51237599185405E-16,-1.,0.));
#772=DIRECTION('',(-3.51237599185405E-16,1.,0.));
#773=DIRECTION('',(0.,0.,-1.));
#774=DIRECTION('',(1.,0.,0.));
#775=CARTESIAN_POINT('',(0.,0.,0.));
#776=CARTESIAN_POINT('',(0.0127,0.0889,0.1778));
#777=CARTESIAN_POINT('',(0.1143,0.0889,0.0198));
#778=CARTESIAN_POINT('',(0.1143,0.0889,0.00456));
#779=CARTESIAN_POINT('',(-0.1016,0.0889,0.0198));
#780=CARTESIAN_POINT('',(-0.1016,0.0889,0.00456));
#781=CARTESIAN_POINT('',(-0.0254,0.0889,0.0127));
#782=CARTESIAN_POINT('',(-0.0254,0.0889,0.0127));
#783=CARTESIAN_POINT('',(-0.0254,0.0889,0.));
#784=CARTESIAN_POINT('',(0.0127,0.0889,0.0127));
#785=CARTESIAN_POINT('',(0.0254,0.0889,0.0127));
#786=CARTESIAN_POINT('',(0.0254,0.0889,0.0127));
#787=CARTESIAN_POINT('',(0.0254,0.0889,0.));
#788=CARTESIAN_POINT('',(0.0127,0.0889,0.));
#789=CARTESIAN_POINT('',(0.2032,0.0889,0.));
#790=CARTESIAN_POINT('',(0.2032,0.0889,0.1778));
#791=CARTESIAN_POINT('',(0.2032,0.0889,0.1778));
#792=CARTESIAN_POINT('',(0.0127,0.0889,0.1778));
#793=CARTESIAN_POINT('',(-0.1778,0.0889,0.1778));
#794=CARTESIAN_POINT('',(-0.1778,0.0889,0.1778));
#795=CARTESIAN_POINT('',(-0.1778,0.0889,0.));
#796=CARTESIAN_POINT('',(0.0127,0.0889,0.));
#797=CARTESIAN_POINT('',(0.1143,0.1016,0.0198));
#798=CARTESIAN_POINT('',(0.1143,-0.1016,0.0198));
#799=CARTESIAN_POINT('',(0.1143,-0.1016,0.0158));
#800=CARTESIAN_POINT('',(0.1143,-0.09906,0.0198));
#801=CARTESIAN_POINT('',(0.1143,-0.09906,0.0238));
#802=CARTESIAN_POINT('',(-0.1016,0.1016,0.0198));
#803=CARTESIAN_POINT('',(-0.1016,-0.1016,0.0198));
#804=CARTESIAN_POINT('',(-0.1016,-0.1016,0.0158));
#805=CARTESIAN_POINT('',(-0.1016,-0.09906,0.0198));
#806=CARTESIAN_POINT('',(-0.1016,-0.09906,0.0238));
#807=CARTESIAN_POINT('',(0.1143,0.1016,0.0198));
#808=CARTESIAN_POINT('',(0.1143,0.1016,0.0198));
#809=CARTESIAN_POINT('',(0.1143,0.1016,0.0158));
#810=CARTESIAN_POINT('',(0.1143,0.09906,0.0198));
#811=CARTESIAN_POINT('',(0.1143,0.09906,0.0158));
#812=CARTESIAN_POINT('',(-0.1016,0.1016,0.0198));
#813=CARTESIAN_POINT('',(-0.1016,0.1016,0.0198));
#814=CARTESIAN_POINT('',(-0.1016,0.1016,0.0158));
#815=CARTESIAN_POINT('',(-0.1016,0.09906,0.0198));
#816=CARTESIAN_POINT('',(-0.1016,0.09906,0.0158));
#817=CARTESIAN_POINT('',(0.,0.,0.));
#818=CARTESIAN_POINT('',(0.0254,-1.38777878078145E-17,0.));
#819=CARTESIAN_POINT('',(0.0254,-0.0889,0.));
#820=CARTESIAN_POINT('',(0.0127,-0.0889,0.));
#821=CARTESIAN_POINT('',(0.2032,-0.0889,0.));
#822=CARTESIAN_POINT('',(0.2032,0.,0.));
#823=CARTESIAN_POINT('',(-5.55111512312578E-17,-0.1016,0.));
#824=CARTESIAN_POINT('',(0.2159,-0.1016,0.));
#825=CARTESIAN_POINT('',(-0.1905,-0.1016,0.));
#826=CARTESIAN_POINT('',(-0.1905,-0.1016,0.));
#827=CARTESIAN_POINT('',(-0.2159,-0.0762,0.));
#828=CARTESIAN_POINT('',(-0.2159,-1.38777878078145E-17,0.));
#829=CARTESIAN_POINT('',(-0.2159,0.0762,0.));
#830=CARTESIAN_POINT('',(-0.2159,0.0762,0.));
#831=CARTESIAN_POINT('',(-0.1905,0.1016,0.));
#832=CARTESIAN_POINT('',(2.77555756156289E-17,0.1016,0.));
#833=CARTESIAN_POINT('',(0.2159,0.1016,0.));
#834=CARTESIAN_POINT('',(0.2159,-1.38777878078145E-17,0.));
#835=CARTESIAN_POINT('',(-0.0254,0.,0.));
#836=CARTESIAN_POINT('',(-0.0254,-0.0889,0.));
#837=CARTESIAN_POINT('',(-0.1778,0.,0.));
#838=CARTESIAN_POINT('',(-0.1778,-0.0889,0.));
#839=CARTESIAN_POINT('',(0.0127,-0.0889,0.));
#840=CARTESIAN_POINT('',(0.2159,-1.38777878078145E-17,0.2032));
#841=CARTESIAN_POINT('',(0.2159,0.1016,0.2032));
#842=CARTESIAN_POINT('',(0.2159,0.1016,0.2032));
#843=CARTESIAN_POINT('',(0.2159,-1.38777878078145E-17,0.2032));
#844=CARTESIAN_POINT('',(0.2159,-0.1016,0.2032));
#845=CARTESIAN_POINT('',(0.2159,-0.1016,0.2032));
#846=CARTESIAN_POINT('',(2.77555756156289E-17,0.1016,0.2032));
#847=CARTESIAN_POINT('',(-0.1905,0.1016,0.2032));
#848=CARTESIAN_POINT('',(-0.1905,0.1016,0.2032));
#849=CARTESIAN_POINT('',(2.77555756156289E-17,0.1016,0.2032));
#850=CARTESIAN_POINT('',(-0.2159,-1.38777878078145E-17,0.2032));
#851=CARTESIAN_POINT('',(-0.2159,-0.0762,0.2032));
#852=CARTESIAN_POINT('',(-0.2159,-0.0762,0.2032));
#853=CARTESIAN_POINT('',(-0.2159,-1.38777878078145E-17,0.2032));
#854=CARTESIAN_POINT('',(-0.2159,0.0762,0.2032));
#855=CARTESIAN_POINT('',(-0.2159,0.0762,0.2032));
#856=CARTESIAN_POINT('',(-5.55111512312578E-17,-0.1016,0.2032));
#857=CARTESIAN_POINT('',(-5.55111512312578E-17,-0.1016,0.2032));
#858=CARTESIAN_POINT('',(-0.1905,-0.1016,0.2032));
#859=CARTESIAN_POINT('',(-0.1905,-0.1016,0.));
#860=CARTESIAN_POINT('',(0.,0.,0.2032));
#861=CARTESIAN_POINT('',(-0.14605,-0.14605,0.2032));
#862=CARTESIAN_POINT('',(-0.14605,0.14605,0.2032));
#863=CARTESIAN_POINT('',(-0.1905,-0.1016,0.2032));
#864=CARTESIAN_POINT('',(-0.2032,-0.0889,0.059028));
#865=CARTESIAN_POINT('',(-0.196015795103145,-0.0960842048968553,0.059028));
#866=CARTESIAN_POINT('',(-0.2159,0.0762,0.2032));
#867=CARTESIAN_POINT('',(-0.2032,0.0889,0.059028));
#868=CARTESIAN_POINT('',(-0.210384204896855,0.0817157951031447,0.059028));
#869=CARTESIAN_POINT('',(-0.183443436533648,0.0691434365336479,0.059028));
#870=CARTESIAN_POINT('',(-0.183443436533648,0.0691434365336479,0.059028));
#871=CARTESIAN_POINT('',(-0.1778,0.0747868730672958,0.0527408028358118));
#872=CARTESIAN_POINT('',(-0.1778,0.0747868730672958,0.0653151971641882));
#873=CARTESIAN_POINT('',(-0.1778,0.0635,0.059028));
#874=CARTESIAN_POINT('',(-0.183443436533648,0.0691434365336479,0.1016));
#875=CARTESIAN_POINT('',(-0.1778,0.0747868730672958,0.1016));
#876=CARTESIAN_POINT('',(-0.183443436533648,-0.0691434365336479,0.059028));
#877=CARTESIAN_POINT('',(-0.183443436533648,-0.0691434365336479,0.059028));
#878=CARTESIAN_POINT('',(-0.1778,-0.0747868730672958,0.0653151971641882));
#879=CARTESIAN_POINT('',(-0.1778,-0.0747868730672958,0.0527408028358118));
#880=CARTESIAN_POINT('',(-0.1778,-0.0635,0.059028));
#881=CARTESIAN_POINT('',(-0.183443436533648,-0.0691434365336479,0.1016));
#882=CARTESIAN_POINT('',(-0.1778,-0.0747868730672958,0.1016));
#883=CARTESIAN_POINT('',(-0.1778,0.,0.1778));
#884=CARTESIAN_POINT('',(-0.1778,0.,0.1778));
#885=CARTESIAN_POINT('',(-0.1778,-0.0889,0.1778));
#886=CARTESIAN_POINT('',(-0.1778,-0.0889,0.1778));
#887=CARTESIAN_POINT('',(0.2032,0.,0.1778));
#888=CARTESIAN_POINT('',(0.2032,-0.0889,0.1778));
#889=CARTESIAN_POINT('',(0.2032,-0.0889,0.1778));
#890=CARTESIAN_POINT('',(0.2032,0.,0.1778));
#891=CARTESIAN_POINT('',(0.0127,-0.0889,0.1778));
#892=CARTESIAN_POINT('',(0.0254,-0.0889,0.0127));
#893=CARTESIAN_POINT('',(0.0254,-0.0889,0.0127));
#894=CARTESIAN_POINT('',(0.0127,-0.0889,0.0127));
#895=CARTESIAN_POINT('',(-0.0254,-0.0889,0.0127));
#896=CARTESIAN_POINT('',(-0.0254,-0.0889,0.0127));
#897=CARTESIAN_POINT('',(0.0127,-0.0889,0.1778));
#898=CARTESIAN_POINT('',(-0.1016,-0.0889,0.0198));
#899=CARTESIAN_POINT('',(-0.1016,-0.0889,0.03504));
#900=CARTESIAN_POINT('',(0.1143,-0.0889,0.0198));
#901=CARTESIAN_POINT('',(0.1143,-0.0889,0.03504));
#902=CARTESIAN_POINT('',(0.,0.,0.1778));
#903=CARTESIAN_POINT('',(0.0127,0.09906,0.0889));
#904=CARTESIAN_POINT('',(-0.1016,0.09906,0.0198));
#905=CARTESIAN_POINT('',(-0.1016,0.09906,0.00456));
#906=CARTESIAN_POINT('',(-0.1016,0.09906,0.0198));
#907=CARTESIAN_POINT('',(0.0127,0.09906,0.0889));
#908=CARTESIAN_POINT('',(0.1143,0.09906,0.0198));
#909=CARTESIAN_POINT('',(0.1143,0.09906,0.00456));
#910=CARTESIAN_POINT('',(0.1143,0.09906,0.0198));
#911=CARTESIAN_POINT('',(0.0127,-0.09906,0.0889));
#912=CARTESIAN_POINT('',(-0.1016,-0.09906,0.0198));
#913=CARTESIAN_POINT('',(-0.1016,-0.09906,0.03504));
#914=CARTESIAN_POINT('',(-0.1016,-0.09906,0.0198));
#915=CARTESIAN_POINT('',(0.0127,-0.09906,0.0889));
#916=CARTESIAN_POINT('',(0.1143,-0.09906,0.0198));
#917=CARTESIAN_POINT('',(0.1143,-0.09906,0.03504));
#918=CARTESIAN_POINT('',(0.1143,-0.09906,0.0198));
#919=CARTESIAN_POINT('',(-0.0254,0.,0.0127));
#920=CARTESIAN_POINT('',(-0.0254,0.,0.0127));
#921=CARTESIAN_POINT('',(0.0254,-1.38777878078145E-17,0.0127));
#922=CARTESIAN_POINT('',(0.0254,-1.38777878078145E-17,0.0127));
#923=CARTESIAN_POINT('',(0.0127,0.,0.0127));
#924=MECHANICAL_DESIGN_GEOMETRIC_PRESENTATION_REPRESENTATION('',(#555),
#925);
#925=(
GEOMETRIC_REPRESENTATION_CONTEXT(3)
GLOBAL_UNCERTAINTY_ASSIGNED_CONTEXT((#926))
GLOBAL_UNIT_ASSIGNED_CONTEXT((#929,#928,#927))
REPRESENTATION_CONTEXT('Part 1','TOP_LEVEL_ASSEMBLY_PART')
);
#926=UNCERTAINTY_MEASURE_WITH_UNIT(LENGTH_MEASURE(1.E-8),#929,
'DISTANCE_ACCURACY_VALUE','Maximum Tolerance applied to model');
#927=(
NAMED_UNIT(*)
SI_UNIT($,.STERADIAN.)
SOLID_ANGLE_UNIT()
);
#928=(
NAMED_UNIT(*)
PLANE_ANGLE_UNIT()
SI_UNIT($,.RADIAN.)
);
#929=(
LENGTH_UNIT()
NAMED_UNIT(*)
SI_UNIT($,.METRE.)
);
#930=PRODUCT_DEFINITION_SHAPE('','',#931);
#931=PRODUCT_DEFINITION('','',#933,#932);
#932=PRODUCT_DEFINITION_CONTEXT('',#939,'design');
#933=PRODUCT_DEFINITION_FORMATION_WITH_SPECIFIED_SOURCE('','',#935,
 .NOT_KNOWN.);
#934=PRODUCT_RELATED_PRODUCT_CATEGORY('','',(#935));
#935=PRODUCT('Part 1','Part 1','Part 1',(#937));
#936=PRODUCT_CATEGORY('','');
#937=PRODUCT_CONTEXT('',#939,'mechanical');
#938=APPLICATION_PROTOCOL_DEFINITION('international standard',
'ap242_managed_model_based_3d_engineering',2020,#939);
#939=APPLICATION_CONTEXT('managed model based 3d engineering');
ENDSEC;
END-ISO-10303-21;
